<svg xmlns="http://www.w3.org/2000/svg" version="1.1" viewBox="0.9865517020225525 1.6720000505447388 934.85302734375 949.4227294921875" width="937.00" height="952.00">
<g stroke-width="2.00" fill="none" stroke-linecap="butt">
<path stroke="#c5a09a" d="&#10;  M 286.61 247.60&#10;  Q 290.44 244.43 294.07 241.14&#10;  C 297.72 237.86 299.96 233.26 303.19 229.47&#10;  Q 308.53 223.21 313.12 216.72&#10;  Q 316.61 211.80 319.35 204.48&#10;  Q 319.82 203.21 320.01 201.89&#10;  A 1.07 1.07 0.0 0 0 319.37 200.76&#10;  C 314.73 198.74 309.95 198.75 305.09 197.52&#10;  Q 297.19 195.52 286.66 195.30&#10;  C 285.55 195.28 284.69 194.85 283.64 194.80&#10;  Q 278.13 194.57 273.07 194.51&#10;  Q 271.48 194.50 270.75 195.90&#10;  C 268.31 200.61 264.77 204.84 262.23 209.30&#10;  Q 257.47 217.68 253.21 222.83&#10;  Q 248.41 228.64 243.54 234.11&#10;  C 239.76 238.37 235.52 241.74 231.73 246.05&#10;  C 230.84 247.06 229.52 247.72 228.17 247.72&#10;  Q 194.46 247.71 159.80 247.65&#10;  A 0.90 0.89 -87.6 0 0 158.91 248.47&#10;  Q 157.42 264.74 155.74 281.25&#10;  Q 155.52 283.41 155.66 286.22&#10;  A 0.59 0.59 0.0 0 0 156.29 286.78&#10;  C 160.98 286.48 165.54 287.25 170.25 287.25&#10;  Q 278.88 287.34 387.50 287.66&#10;  Q 390.83 287.67 394.45 287.69&#10;  C 398.80 287.73 399.27 294.72 399.28 297.74&#10;  Q 399.33 315.53 399.25 335.33&#10;  C 399.24 338.31 398.62 341.87 398.71 345.20&#10;  Q 398.95 354.53 397.47 363.76&#10;  Q 397.39 364.31 396.83 364.34&#10;  C 384.29 364.95 371.64 364.70 359.21 364.75&#10;  C 356.80 364.76 354.68 365.20 352.30 365.40&#10;  A 0.70 0.69 -2.6 0 1 351.54 364.71&#10;  L 351.73 301.66&#10;  A 0.37 0.36 -90.0 0 0 351.37 301.29&#10;  Q 346.24 301.25 341.01 301.05&#10;  Q 339.24 300.99 337.73 300.94&#10;  Q 323.03 300.47 308.25 300.79&#10;  Q 307.74 300.80 307.74 301.31&#10;  L 307.73 365.15&#10;  Q 307.73 365.68 307.20 365.68&#10;  L 260.07 365.67&#10;  A 0.50 0.50 0.0 0 1 259.60 365.01&#10;  Q 261.82 358.39 262.26 351.95&#10;  C 262.53 348.07 263.27 344.67 263.42 340.99&#10;  Q 264.10 324.58 263.44 307.89&#10;  Q 263.38 306.46 262.95 305.15&#10;  C 262.43 303.56 261.97 301.10 259.97 300.85&#10;  Q 255.41 300.28 250.01 300.03&#10;  Q 248.95 299.98 247.98 299.92&#10;  Q 235.31 299.11 220.28 299.35&#10;  Q 219.82 299.36 219.74 299.81&#10;  Q 218.53 307.23 218.23 315.05&#10;  C 218.14 317.30 217.67 319.39 217.68 321.66&#10;  Q 217.68 323.97 217.43 326.41&#10;  Q 216.26 338.00 215.03 349.55&#10;  Q 213.82 360.92 208.99 371.91&#10;  Q 206.17 378.31 201.35 383.21&#10;  Q 190.74 394.01 177.35 399.14&#10;  C 173.51 400.60 169.65 402.15 165.78 403.65&#10;  A 1.58 1.58 0.0 0 0 164.93 405.82&#10;  Q 165.52 407.03 165.85 408.56&#10;  C 166.69 412.45 169.87 415.89 171.47 419.75&#10;  C 173.74 425.24 176.11 431.03 179.34 436.00&#10;  Q 180.22 437.34 181.63 437.23&#10;  Q 194.77 436.20 207.15 430.54&#10;  C 212.41 428.14 217.50 426.45 222.20 422.73&#10;  Q 231.43 415.42 236.62 409.94&#10;  Q 239.35 407.06 241.73 403.53&#10;  A 2.29 2.29 0.0 0 1 243.64 402.53&#10;  Q 291.40 402.74 345.76 402.71&#10;  C 370.61 402.70 395.58 403.24 420.00 403.28&#10;  Q 427.89 403.29 432.68 398.03&#10;  C 435.66 394.76 437.48 389.74 438.17 385.48&#10;  Q 439.98 374.27 442.19 362.25&#10;  C 442.82 358.85 442.62 354.80 443.08 351.14&#10;  Q 443.74 345.89 443.76 340.04&#10;  C 443.76 338.44 444.37 337.02 444.34 335.35&#10;  Q 444.24 330.23 444.78 325.16&#10;  Q 445.30 320.27 445.31 315.22&#10;  Q 445.33 308.82 445.31 302.09&#10;  C 445.30 299.95 444.69 298.06 444.67 295.83&#10;  Q 444.61 289.98 443.91 283.19&#10;  Q 443.63 280.45 443.41 277.35&#10;  Q 442.63 266.57 437.38 257.04&#10;  C 436.17 254.84 433.79 251.01 431.33 250.61&#10;  Q 427.41 249.98 424.00 249.79&#10;  Q 414.91 249.30 403.94 249.21&#10;  C 402.98 249.21 402.09 248.77 401.14 248.76&#10;  Q 390.76 248.67 380.38 248.66&#10;  A 0.33 0.33 0.0 0 1 380.14 248.10&#10;  Q 387.71 240.01 395.18 231.55&#10;  C 399.75 226.39 405.55 221.90 409.38 216.47&#10;  C 410.85 214.37 414.33 209.58 414.48 206.74&#10;  Q 414.51 206.23 414.20 205.82&#10;  Q 409.37 199.37 405.93 196.27&#10;  C 397.71 188.87 388.67 181.63 379.24 175.88&#10;  C 375.71 173.73 369.18 172.76 367.37 177.82&#10;  Q 365.11 184.15 362.93 190.65&#10;  C 361.07 196.22 357.91 201.00 355.10 206.05&#10;  Q 353.86 208.28 352.38 210.51&#10;  C 350.63 213.16 349.61 216.10 347.65 218.86&#10;  Q 335.87 235.38 326.07 247.06&#10;  Q 325.07 248.25 323.52 248.26&#10;  Q 304.82 248.27 286.85 248.28&#10;  A 0.38 0.38 0.0 0 1 286.61 247.60"/>
<path stroke="#c5a09a" d="&#10;  M 534.21 193.66&#10;  C 531.77 194.74 529.42 195.48 527.31 197.32&#10;  Q 518.78 204.72 518.75 216.00&#10;  Q 518.63 269.14 518.87 322.67&#10;  C 518.88 324.68 519.22 326.79 519.23 328.85&#10;  Q 519.27 341.78 519.27 354.65&#10;  Q 519.27 356.90 519.92 359.03&#10;  C 521.12 362.94 521.95 366.57 524.68 369.72&#10;  Q 530.91 376.91 540.47 378.98&#10;  Q 547.52 380.51 555.52 381.39&#10;  Q 563.28 382.25 571.15 382.34&#10;  C 606.13 382.78 638.82 382.56 676.15 382.25&#10;  Q 681.80 382.20 687.82 381.86&#10;  Q 693.92 381.51 699.49 381.13&#10;  Q 704.31 380.80 708.64 380.34&#10;  Q 716.90 379.48 723.55 377.55&#10;  C 733.37 374.70 740.36 369.84 743.12 359.33&#10;  C 743.79 356.79 744.28 353.88 744.29 351.24&#10;  Q 744.42 284.20 744.15 223.41&#10;  Q 744.13 218.44 743.16 212.38&#10;  C 741.42 201.49 730.97 193.24 721.08 190.62&#10;  Q 716.93 189.52 712.38 188.58&#10;  Q 707.96 187.66 703.24 187.53&#10;  C 694.69 187.30 686.41 186.70 678.00 186.69&#10;  Q 640.67 186.63 605.83 186.81&#10;  C 603.79 186.82 601.86 187.26 599.82 187.25&#10;  Q 579.56 187.18 566.02 188.06&#10;  Q 555.08 188.77 542.08 191.10&#10;  C 539.32 191.60 536.75 192.53 534.21 193.66"/>
<path stroke="#c5a09a" d="&#10;  M 586.70 458.80&#10;  Q 588.45 458.82 587.56 460.32&#10;  Q 585.06 464.55 581.36 468.71&#10;  C 578.21 472.25 574.30 475.08 570.71 478.34&#10;  C 563.11 485.24 553.03 490.22 543.44 494.04&#10;  C 540.25 495.31 536.88 495.97 533.57 497.06&#10;  C 528.21 498.82 522.30 499.56 516.49 500.58&#10;  Q 511.26 501.50 506.87 501.34&#10;  Q 500.89 501.12 495.16 499.69&#10;  Q 494.49 499.52 494.50 500.21&#10;  Q 494.50 501.84 495.40 503.08&#10;  Q 498.45 507.34 500.18 511.32&#10;  Q 501.00 513.23 502.16 514.96&#10;  C 504.10 517.85 505.28 521.07 507.22 524.02&#10;  C 509.36 527.29 511.40 530.73 514.00 533.63&#10;  Q 515.73 535.55 517.13 537.79&#10;  A 1.88 1.88 0.0 0 0 518.62 538.66&#10;  Q 526.73 539.04 534.28 538.19&#10;  Q 557.00 535.61 578.31 526.90&#10;  Q 588.36 522.79 595.94 517.97&#10;  Q 602.23 513.97 608.87 508.96&#10;  Q 619.84 500.68 629.17 489.25&#10;  Q 633.61 483.81 636.49 478.06&#10;  Q 637.08 476.88 638.02 475.76&#10;  A 0.69 0.69 0.0 0 1 639.17 475.90&#10;  Q 642.21 482.29 646.92 488.25&#10;  Q 663.37 509.06 685.72 520.74&#10;  C 692.66 524.37 700.41 526.97 708.08 529.62&#10;  C 712.95 531.30 718.18 532.57 723.13 534.00&#10;  Q 734.85 537.38 750.39 538.69&#10;  Q 751.73 538.81 752.99 538.57&#10;  Q 753.39 538.49 753.58 538.13&#10;  Q 756.63 532.41 760.61 526.28&#10;  C 763.91 521.21 765.82 515.48 768.95 510.26&#10;  Q 771.04 506.76 772.50 502.30&#10;  A 1.06 1.06 0.0 0 0 771.62 500.92&#10;  Q 756.70 499.11 743.14 495.22&#10;  C 736.43 493.29 729.85 490.17 723.26 487.54&#10;  Q 718.60 485.69 714.08 482.50&#10;  C 708.81 478.79 703.23 475.24 698.59 470.91&#10;  C 695.67 468.17 692.20 465.69 689.94 462.43&#10;  Q 688.36 460.15 686.47 458.13&#10;  A 0.27 0.27 0.0 0 1 686.67 457.67&#10;  Q 702.75 457.78 722.27 457.49&#10;  C 725.42 457.44 729.68 457.23 729.69 453.00&#10;  Q 729.72 433.82 729.71 414.73&#10;  A 0.41 0.41 0.0 0 0 729.30 414.32&#10;  L 664.05 414.33&#10;  A 0.58 0.58 0.0 0 1 663.47 413.75&#10;  Q 663.58 405.98 663.38 398.39&#10;  C 663.28 394.54 659.60 390.77 656.72 388.73&#10;  Q 655.02 387.53 652.39 387.55&#10;  Q 633.83 387.76 616.01 387.72&#10;  Q 614.90 387.72 614.00 388.40&#10;  C 611.58 390.25 608.66 392.44 607.61 395.42&#10;  C 605.58 401.16 605.29 407.59 604.51 413.53&#10;  Q 604.43 414.21 603.74 414.22&#10;  Q 580.50 414.64 557.26 414.77&#10;  Q 555.28 414.78 553.27 415.07&#10;  C 549.99 415.55 546.58 415.11 543.26 415.43&#10;  Q 539.26 415.83 535.25 415.66&#10;  Q 534.70 415.64 534.66 416.18&#10;  Q 534.40 419.81 535.32 422.28&#10;  Q 536.67 425.96 536.69 428.99&#10;  Q 536.75 440.55 536.69 451.87&#10;  Q 536.69 453.27 537.06 454.62&#10;  C 537.66 456.76 537.56 458.66 540.50 458.66&#10;  Q 562.42 458.61 586.70 458.80"/>
<path stroke="#c5a09a" d="&#10;  M 334.81 459.80&#10;  Q 335.18 459.31 336.07 458.86&#10;  Q 346.70 453.50 353.64 447.92&#10;  C 357.48 444.83 361.29 442.41 365.26 439.62&#10;  Q 372.77 434.34 378.16 427.59&#10;  Q 378.54 427.12 378.00 426.84&#10;  C 373.70 424.64 369.46 422.20 364.99 420.30&#10;  Q 348.18 413.15 333.51 405.73&#10;  Q 331.57 404.75 329.72 403.57&#10;  Q 329.22 403.26 328.84 403.70&#10;  C 327.87 404.82 326.87 406.03 325.77 406.99&#10;  Q 310.06 420.68 293.80 432.07&#10;  C 288.87 435.52 283.57 438.85 278.15 441.51&#10;  Q 274.79 443.15 271.69 445.34&#10;  C 269.08 447.18 266.26 448.74 263.55 450.36&#10;  Q 260.63 452.10 257.21 453.71&#10;  C 249.98 457.13 242.92 461.14 235.57 464.07&#10;  Q 229.70 466.41 224.07 469.17&#10;  C 216.30 472.98 207.89 475.01 199.70 478.05&#10;  C 196.75 479.15 193.74 479.58 190.84 480.72&#10;  C 185.19 482.94 179.14 483.92 173.44 486.12&#10;  C 172.18 486.60 170.71 486.73 169.36 486.85&#10;  A 0.64 0.63 -10.0 0 0 168.80 487.64&#10;  C 170.54 494.26 171.41 501.25 172.77 507.98&#10;  Q 174.79 517.96 175.79 528.99&#10;  Q 175.85 529.68 176.53 529.52&#10;  C 183.70 527.79 190.56 526.77 197.83 524.67&#10;  Q 210.52 521.00 220.90 517.56&#10;  Q 222.33 517.08 223.98 516.40&#10;  C 227.05 515.14 230.33 514.44 233.40 513.20&#10;  Q 236.43 511.97 239.60 510.88&#10;  Q 244.07 509.34 249.28 507.33&#10;  Q 272.10 498.55 287.09 490.06&#10;  Q 289.08 488.93 290.77 489.76&#10;  Q 299.09 493.86 306.73 496.86&#10;  Q 313.74 499.62 323.20 503.01&#10;  Q 336.17 507.64 349.86 511.71&#10;  C 351.88 512.31 353.51 513.48 355.51 513.95&#10;  C 361.57 515.37 367.48 517.52 373.45 519.18&#10;  Q 378.06 520.46 383.26 522.19&#10;  Q 394.20 525.83 408.35 528.78&#10;  C 409.77 529.08 411.30 529.72 412.52 530.53&#10;  Q 413.11 530.93 413.22 530.22&#10;  L 419.64 487.30&#10;  Q 419.70 486.90 419.32 486.77&#10;  Q 412.52 484.36 405.76 482.91&#10;  Q 399.44 481.57 392.71 479.42&#10;  Q 384.93 476.94 376.85 474.72&#10;  Q 369.18 472.61 360.84 469.52&#10;  C 352.36 466.37 343.84 463.82 335.17 460.95&#10;  Q 334.19 460.63 334.81 459.80"/>
<path stroke="#c5a09a" d="&#10;  M 796.64 603.94&#10;  C 802.04 605.55 808.98 601.58 811.04 596.53&#10;  C 812.57 592.77 815.08 582.92 811.95 580.31&#10;  Q 811.16 579.65 809.82 579.66&#10;  Q 800.88 579.71 790.98 579.69&#10;  Q 786.23 579.68 785.83 584.29&#10;  C 785.36 589.74 785.54 594.15 787.93 598.94&#10;  C 789.46 602.00 793.66 603.04 796.64 603.94"/>
<path stroke="#c5a09a" d="&#10;  M 159.42 654.25&#10;  Q 162.04 654.26 164.46 654.36&#10;  C 166.88 654.45 169.27 656.95 171.15 658.41&#10;  Q 172.89 659.76 174.23 661.67&#10;  C 180.77 671.02 187.38 679.64 193.25 689.34&#10;  Q 195.46 693.00 198.11 696.17&#10;  Q 200.83 699.42 203.27 702.97&#10;  A 3.02 3.01 72.8 0 0 205.76 704.29&#10;  L 239.23 704.30&#10;  A 0.51 0.51 0.0 0 0 239.67 703.54&#10;  C 237.53 699.88 235.20 696.33 232.45 693.10&#10;  Q 226.65 686.29 221.86 679.41&#10;  Q 220.17 677.00 218.25 674.63&#10;  C 215.23 670.92 212.88 666.82 209.69 663.04&#10;  Q 203.72 655.97 197.48 648.87&#10;  A 0.68 0.68 0.0 0 1 197.94 647.74&#10;  C 203.52 647.31 207.45 645.58 212.48 643.42&#10;  C 215.64 642.06 218.98 638.61 220.78 635.91&#10;  C 223.72 631.50 225.60 624.41 225.68 619.22&#10;  Q 225.92 604.09 215.19 595.55&#10;  C 210.24 591.62 203.34 588.77 196.88 587.80&#10;  C 192.73 587.18 188.36 586.59 184.15 586.60&#10;  Q 156.83 586.64 130.23 586.72&#10;  Q 129.68 586.72 129.68 587.27&#10;  L 129.68 702.22&#10;  Q 129.68 704.25 131.72 704.25&#10;  L 158.23 704.25&#10;  A 0.49 0.49 0.0 0 0 158.72 703.76&#10;  L 158.69 654.97&#10;  Q 158.69 654.24 159.42 654.25"/>
<path stroke="#c5a09a" d="&#10;  M 624.14 693.65&#10;  Q 624.31 697.16 625.89 700.46&#10;  Q 626.16 701.03 626.26 701.64&#10;  L 626.48 703.02&#10;  A 0.83 0.83 0.0 0 0 627.30 703.72&#10;  C 628.96 703.71 630.33 704.32 632.05 704.31&#10;  Q 642.56 704.24 653.84 704.26&#10;  Q 654.47 704.27 655.07 704.08&#10;  A 0.50 0.50 0.0 0 0 655.38 703.40&#10;  Q 653.72 699.75 652.20 696.12&#10;  C 651.38 694.15 651.42 692.16 651.09 690.11&#10;  Q 650.71 687.77 650.70 685.36&#10;  Q 650.64 665.94 650.74 644.37&#10;  Q 650.77 639.38 649.97 635.43&#10;  C 649.18 631.44 647.39 625.12 644.31 622.05&#10;  Q 640.36 618.12 636.26 616.11&#10;  C 631.03 613.55 624.16 611.62 618.09 611.51&#10;  Q 610.66 611.37 602.46 611.63&#10;  Q 598.68 611.75 595.22 612.79&#10;  C 590.70 614.15 586.27 614.95 582.11 617.44&#10;  Q 579.04 619.28 577.00 621.08&#10;  C 573.87 623.84 570.19 629.54 570.86 634.06&#10;  C 571.20 636.35 572.29 639.67 575.22 639.70&#10;  C 577.67 639.72 580.09 639.73 582.55 640.25&#10;  Q 585.67 640.92 589.04 640.69&#10;  A 1.24 1.23 14.2 0 0 589.97 640.14&#10;  C 595.70 631.27 606.53 628.92 616.52 630.90&#10;  C 621.29 631.84 623.12 635.51 623.38 640.10&#10;  A 1.59 1.58 -11.1 0 1 622.31 641.69&#10;  Q 610.64 645.65 597.82 646.79&#10;  Q 595.43 647.01 593.66 648.81&#10;  Q 593.33 649.14 592.89 649.26&#10;  Q 589.98 650.07 587.08 650.32&#10;  C 579.85 650.94 574.33 656.70 570.31 662.13&#10;  C 565.61 668.47 565.40 678.05 567.14 685.55&#10;  C 568.18 690.05 570.90 694.41 574.36 697.35&#10;  C 576.62 699.28 578.93 701.59 581.67 702.70&#10;  Q 588.59 705.51 595.24 705.58&#10;  Q 598.82 705.61 603.94 704.49&#10;  Q 609.58 703.26 612.72 701.94&#10;  Q 616.43 700.38 620.81 696.86&#10;  Q 622.47 695.54 623.48 693.51&#10;  Q 624.08 692.31 624.14 693.65"/>
<path stroke="#c5a09a" d="&#10;  M 519.35 688.07&#10;  C 519.53 689.77 518.73 691.34 518.72 693.08&#10;  C 518.68 697.61 519.15 702.36 517.10 706.62&#10;  C 515.74 709.46 513.98 713.82 510.74 714.59&#10;  C 504.17 716.15 496.02 716.32 490.47 711.78&#10;  C 488.64 710.29 487.84 708.11 486.57 706.19&#10;  A 1.01 1.00 -16.0 0 0 485.75 705.74&#10;  Q 476.57 705.66 468.20 705.92&#10;  Q 466.05 705.99 463.90 706.54&#10;  Q 463.31 706.68 463.36 707.28&#10;  Q 463.47 708.60 464.32 709.65&#10;  A 1.78 1.73 25.3 0 1 464.71 710.69&#10;  Q 464.80 713.24 464.68 715.93&#10;  Q 464.57 718.26 465.53 720.54&#10;  Q 467.07 724.19 468.97 726.15&#10;  C 473.36 730.65 479.69 733.60 486.05 734.98&#10;  Q 502.80 738.62 519.90 735.15&#10;  Q 523.72 734.38 526.49 733.04&#10;  C 533.67 729.57 539.28 725.45 542.49 717.74&#10;  Q 546.27 708.68 546.29 701.07&#10;  Q 546.35 660.97 546.26 614.83&#10;  Q 546.26 614.31 545.75 614.31&#10;  L 522.23 614.30&#10;  A 0.72 0.72 0.0 0 0 521.51 615.02&#10;  L 521.50 623.21&#10;  Q 521.50 624.51 520.63 623.56&#10;  C 518.25 620.97 516.45 617.89 513.19 616.20&#10;  Q 507.09 613.04 500.67 612.25&#10;  C 498.51 611.98 494.68 611.28 492.93 611.77&#10;  C 487.38 613.34 480.57 614.33 475.95 618.05&#10;  Q 472.34 620.97 468.33 626.17&#10;  C 466.82 628.12 466.31 630.19 465.28 632.33&#10;  C 462.80 637.50 462.09 644.89 461.78 650.42&#10;  Q 461.39 657.38 461.86 664.10&#10;  Q 462.54 673.86 467.73 683.58&#10;  Q 472.19 691.94 480.36 695.54&#10;  Q 485.96 698.00 490.13 698.42&#10;  Q 494.32 698.85 499.34 698.58&#10;  C 503.45 698.37 509.36 696.44 512.10 694.04&#10;  Q 515.57 691.00 518.80 687.87&#10;  Q 519.28 687.41 519.35 688.07"/>
<path stroke="#c5a09a" d="&#10;  M 308.70 623.50&#10;  Q 308.69 625.87 307.62 623.76&#10;  Q 304.66 617.96 298.00 615.26&#10;  Q 288.39 611.37 277.95 612.48&#10;  Q 270.32 613.29 264.99 616.37&#10;  C 261.19 618.56 256.76 623.01 254.37 626.43&#10;  Q 248.26 635.17 246.89 645.43&#10;  Q 245.64 654.78 247.19 665.90&#10;  C 247.93 671.15 249.85 675.83 252.06 680.51&#10;  Q 256.36 689.65 265.09 694.38&#10;  C 270.33 697.22 276.16 699.53 282.12 699.30&#10;  Q 294.48 698.82 302.40 690.99&#10;  Q 303.13 690.27 303.69 689.36&#10;  Q 304.72 687.68 304.72 689.65&#10;  Q 304.73 694.95 304.79 700.71&#10;  C 304.90 711.02 295.85 716.08 286.68 715.31&#10;  Q 279.49 714.70 275.60 711.77&#10;  Q 272.44 709.39 269.52 706.69&#10;  C 267.82 705.12 264.90 703.49 262.44 704.23&#10;  Q 256.86 705.93 253.62 708.25&#10;  Q 249.35 711.32 244.71 714.69&#10;  Q 242.38 716.40 245.27 716.48&#10;  L 247.13 716.54&#10;  Q 247.84 716.56 248.23 717.15&#10;  Q 251.68 722.39 255.09 725.91&#10;  C 259.12 730.07 265.29 734.20 271.48 735.23&#10;  Q 278.32 736.36 284.75 737.04&#10;  C 289.77 737.58 294.05 736.74 298.90 736.23&#10;  Q 309.19 735.15 318.27 729.52&#10;  C 324.05 725.93 327.05 720.18 329.73 713.79&#10;  C 330.64 711.63 331.30 707.73 331.30 705.44&#10;  Q 331.33 662.06 331.31 614.86&#10;  Q 331.31 614.31 330.76 614.31&#10;  L 310.34 614.29&#10;  A 1.63 1.62 -89.8 0 0 308.72 615.91&#10;  L 308.70 623.50"/>
<path stroke="#c5a09a" d="&#10;  M 812.31 614.16&#10;  A 0.43 0.43 0.0 0 0 811.88 613.73&#10;  L 785.14 613.74&#10;  A 0.43 0.43 0.0 0 0 784.71 614.17&#10;  L 784.70 703.83&#10;  A 0.43 0.43 0.0 0 0 785.13 704.26&#10;  L 811.87 704.28&#10;  A 0.43 0.43 0.0 0 0 812.30 703.85&#10;  L 812.31 614.16"/>
<path stroke="#c5a09a" d="&#10;  M 413.41 692.40&#10;  C 413.53 694.76 412.50 696.91 412.74 699.24&#10;  Q 412.97 701.46 413.46 703.70&#10;  Q 413.59 704.30 414.20 704.30&#10;  L 438.65 704.30&#10;  Q 439.11 704.31 439.11 703.85&#10;  L 438.62 614.71&#10;  A 0.42 0.41 89.3 0 0 438.21 614.30&#10;  L 412.94 614.28&#10;  A 0.63 0.63 0.0 0 0 412.31 614.91&#10;  Q 412.33 643.83 412.31 671.19&#10;  C 412.31 674.01 407.95 677.39 405.78 679.09&#10;  C 400.55 683.19 394.14 684.13 388.48 680.50&#10;  C 384.99 678.26 383.24 674.45 383.26 670.33&#10;  Q 383.39 641.04 383.29 614.58&#10;  A 0.29 0.28 90.0 0 0 383.01 614.29&#10;  L 357.27 614.28&#10;  Q 356.71 614.28 356.71 614.84&#10;  Q 356.75 638.91 356.66 662.94&#10;  Q 356.64 668.07 357.18 673.41&#10;  C 357.95 680.94 358.72 689.31 363.71 694.99&#10;  Q 372.75 705.28 384.97 704.78&#10;  Q 385.53 704.75 386.02 705.04&#10;  A 1.50 1.47 -33.9 0 0 386.99 705.22&#10;  C 391.36 704.51 395.48 704.27 399.50 702.02&#10;  C 404.46 699.25 409.23 696.90 412.55 692.16&#10;  Q 413.34 691.04 413.41 692.40"/>
<path stroke="#c5a09a" d="&#10;  M 731.52 690.79&#10;  L 731.27 702.70&#10;  A 1.43 1.43 0.0 0 0 732.80 704.15&#10;  Q 745.20 703.24 757.61 704.28&#10;  Q 758.35 704.34 758.35 703.61&#10;  L 758.37 614.71&#10;  A 0.41 0.41 0.0 0 0 757.96 614.30&#10;  L 731.72 614.29&#10;  Q 731.14 614.29 731.15 614.86&#10;  Q 731.37 639.95 731.27 665.02&#10;  Q 731.25 670.41 730.05 673.28&#10;  C 727.26 679.89 720.70 682.95 713.31 682.44&#10;  C 704.63 681.83 702.38 673.71 702.42 665.90&#10;  Q 702.57 640.58 702.58 614.64&#10;  A 0.33 0.32 90.0 0 0 702.26 614.31&#10;  L 676.22 614.26&#10;  Q 675.61 614.26 675.61 614.86&#10;  Q 675.53 645.90 675.60 674.38&#10;  C 675.61 679.91 677.32 685.49 679.51 690.38&#10;  C 686.09 705.13 704.56 707.16 718.48 702.66&#10;  C 721.29 701.75 724.85 698.89 726.67 696.48&#10;  Q 728.21 694.44 729.89 692.63&#10;  A 2.23 2.11 76.5 0 0 730.39 691.76&#10;  Q 730.59 691.13 731.00 690.61&#10;  Q 731.54 689.92 731.52 690.79"/>
<path stroke="#c5a09a" d="&#10;  M 700.36 265.08&#10;  Q 702.26 260.59 702.27 256.63&#10;  Q 702.29 247.79 702.27 238.05&#10;  C 702.26 235.55 701.89 232.89 701.36 230.50&#10;  C 700.06 224.56 695.03 222.46 689.64 222.43&#10;  Q 643.99 222.21 580.90 222.71&#10;  C 578.20 222.73 575.62 223.40 572.96 223.46&#10;  C 565.86 223.62 561.23 228.14 561.26 235.28&#10;  Q 561.32 246.81 561.32 258.38&#10;  C 561.32 260.39 562.17 262.10 562.57 264.04&#10;  C 563.81 269.97 571.63 269.54 576.17 269.52&#10;  Q 632.16 269.23 690.51 269.32&#10;  Q 692.52 269.32 694.58 268.75&#10;  C 696.93 268.09 699.30 267.60 700.36 265.08"/>
<path stroke="#c5a09a" d="&#10;  M 693.37 299.98&#10;  L 571.31 300.62&#10;  A 9.27 9.27 0.0 0 0 562.09 309.94&#10;  L 562.22 335.62&#10;  A 14.05 10.71 -0.3 0 0 576.33 346.25&#10;  L 688.83 345.67&#10;  A 14.05 10.71 -0.3 0 0 702.82 334.88&#10;  L 702.69 309.20&#10;  A 9.27 9.27 0.0 0 0 693.37 299.98"/>
<path stroke="#c5a09a" d="&#10;  M 158.55 606.60&#10;  L 158.45 634.12&#10;  A 0.25 0.25 0.0 0 0 158.70 634.38&#10;  L 179.96 634.45&#10;  A 16.07 12.39 0.2 0 0 196.07 622.12&#10;  L 196.09 618.88&#10;  A 16.07 12.39 0.2 0 0 180.06 606.43&#10;  L 158.80 606.36&#10;  A 0.25 0.25 0.0 0 0 158.55 606.60"/>
<path stroke="#c5a09a" d="&#10;  M 622.29 658.27&#10;  C 620.00 659.29 617.53 659.38 615.17 660.32&#10;  C 609.25 662.67 603.01 664.30 597.18 667.08&#10;  C 593.39 668.89 591.67 672.18 592.42 676.19&#10;  Q 594.51 687.42 605.73 687.64&#10;  C 614.27 687.81 616.87 683.51 622.13 678.18&#10;  A 2.13 2.12 -23.1 0 0 622.73 676.70&#10;  L 622.71 658.54&#10;  A 0.30 0.30 0.0 0 0 622.29 658.27"/>
<path stroke="#c5a09a" d="&#10;  M 504.96 677.53&#10;  C 511.89 676.74 516.84 671.97 518.30 665.45&#10;  Q 520.50 655.63 518.21 646.45&#10;  Q 517.37 643.08 515.45 640.18&#10;  C 509.92 631.78 497.78 631.19 491.35 638.48&#10;  Q 487.35 643.01 486.91 647.90&#10;  Q 486.58 651.55 486.54 656.33&#10;  C 486.48 661.94 487.71 666.38 490.62 671.00&#10;  C 493.73 675.95 499.07 678.21 504.96 677.53"/>
<path stroke="#c5a09a" d="&#10;  M 275.28 669.08&#10;  Q 276.38 671.39 278.33 673.17&#10;  Q 286.54 680.68 296.73 675.80&#10;  C 301.83 673.36 302.83 669.62 304.48 664.78&#10;  C 306.86 657.78 305.70 649.14 302.77 642.70&#10;  Q 300.06 636.75 292.80 634.17&#10;  Q 287.23 632.19 281.59 635.14&#10;  Q 275.97 638.08 273.84 645.07&#10;  Q 269.94 657.83 275.28 669.08"/>
</g>
<path fill="#8d4236" d="&#10;  M 239.10 890.24&#10;  C 233.93 887.80 229.53 884.34 224.56 881.45&#10;  C 220.33 878.99 216.91 875.54 212.61 873.31&#10;  Q 206.56 870.17 201.15 866.11&#10;  Q 189.80 857.58 178.77 849.22&#10;  Q 173.57 845.28 168.57 840.59&#10;  C 164.41 836.70 159.85 833.29 155.67 829.33&#10;  C 150.49 824.41 144.98 819.84 139.92 814.51&#10;  Q 133.52 807.78 126.97 800.93&#10;  C 123.19 796.98 119.98 792.62 116.11 788.74&#10;  Q 114.02 786.65 111.80 783.87&#10;  Q 102.35 772.06 93.27 760.27&#10;  C 89.86 755.84 87.22 750.91 83.89 746.35&#10;  Q 81.87 743.60 80.08 740.79&#10;  C 75.45 733.50 70.55 726.43 66.39 718.83&#10;  C 61.05 709.06 55.15 699.48 50.38 689.36&#10;  Q 43.50 674.78 37.73 660.15&#10;  Q 34.70 652.47 31.52 645.39&#10;  Q 28.34 638.32 26.36 631.82&#10;  C 23.77 623.35 20.96 615.25 18.90 606.73&#10;  C 17.87 602.46 16.51 598.31 15.55 594.03&#10;  Q 12.73 581.40 9.72 567.44&#10;  C 7.72 558.14 6.52 548.92 4.96 539.42&#10;  Q 4.28 535.28 4.00 531.35&#10;  Q 3.82 528.86 3.56 526.39&#10;  C 2.87 520.11 2.93 513.76 2.29 507.43&#10;  Q 1.82 502.82 1.84 498.09&#10;  C 1.85 496.30 1.43 494.53 1.36 492.74&#10;  Q 0.79 478.79 1.09 465.39&#10;  Q 1.48 448.18 3.74 420.42&#10;  Q 4.27 413.86 5.31 407.65&#10;  Q 6.43 400.99 7.38 394.37&#10;  C 8.47 386.80 10.38 378.99 11.93 371.51&#10;  Q 18.75 338.49 27.73 315.25&#10;  Q 37.49 290.01 47.92 267.12&#10;  C 53.20 255.56 59.61 244.83 65.95 233.73&#10;  Q 69.44 227.63 73.39 221.42&#10;  Q 84.21 204.41 91.37 194.51&#10;  Q 101.54 180.44 113.93 165.94&#10;  C 118.08 161.09 122.99 156.63 127.21 151.57&#10;  Q 133.98 143.45 141.42 136.24&#10;  Q 161.83 116.45 185.80 97.54&#10;  Q 193.87 91.16 202.26 85.57&#10;  Q 211.59 79.35 220.83 73.43&#10;  Q 225.17 70.64 230.10 67.49&#10;  Q 234.73 64.52 240.11 61.60&#10;  Q 259.10 51.27 272.08 45.12&#10;  Q 294.12 34.66 325.43 24.14&#10;  C 336.53 20.42 348.65 17.77 360.06 14.30&#10;  Q 366.59 12.31 371.85 11.33&#10;  C 377.38 10.30 382.64 8.46 388.12 7.83&#10;  Q 397.81 6.72 407.76 5.19&#10;  Q 417.21 3.73 427.23 3.20&#10;  Q 437.69 2.65 446.99 2.01&#10;  Q 456.36 1.36 486.92 1.96&#10;  Q 493.21 2.08 501.54 2.86&#10;  C 509.18 3.57 517.16 3.67 524.81 4.87&#10;  C 530.85 5.82 536.67 6.75 543.11 7.53&#10;  C 549.79 8.33 556.11 10.10 562.45 11.17&#10;  C 571.60 12.71 580.71 15.91 589.60 18.31&#10;  C 594.30 19.57 599.26 20.45 603.95 21.94&#10;  Q 635.64 32.05 653.94 40.36&#10;  Q 674.16 49.54 688.56 57.50&#10;  Q 692.75 59.82 697.10 62.08&#10;  C 703.50 65.40 709.50 69.40 715.71 73.18&#10;  Q 724.38 78.44 734.70 85.74&#10;  C 740.24 89.67 745.62 93.06 751.06 97.49&#10;  Q 755.00 100.70 758.93 103.84&#10;  Q 776.51 117.90 791.53 132.61&#10;  Q 793.23 134.28 795.48 136.23&#10;  Q 801.20 141.18 806.89 147.92&#10;  Q 811.25 153.09 816.35 158.73&#10;  Q 830.62 174.48 838.94 185.69&#10;  Q 844.94 193.78 852.10 204.03&#10;  Q 858.11 212.62 863.14 220.66&#10;  Q 870.93 233.11 877.49 244.96&#10;  C 882.58 254.14 887.66 263.89 891.85 273.15&#10;  Q 904.37 300.80 913.32 326.78&#10;  Q 916.42 335.80 918.73 345.63&#10;  Q 919.64 349.52 920.78 352.99&#10;  C 922.54 358.34 922.89 364.24 924.44 369.80&#10;  C 926.23 376.24 926.94 382.94 928.36 389.30&#10;  Q 929.37 393.80 930.21 399.47&#10;  Q 931.61 408.87 932.80 419.23&#10;  Q 934.68 435.53 934.95 452.78&#10;  Q 935.09 461.44 935.64 470.39&#10;  Q 936.08 477.60 935.55 485.15&#10;  Q 935.06 492.11 934.81 499.87&#10;  Q 934.18 519.49 932.61 530.49&#10;  Q 931.23 540.11 929.59 552.30&#10;  Q 928.71 558.86 927.44 564.53&#10;  C 926.16 570.23 925.45 576.23 923.78 581.88&#10;  Q 923.00 584.51 922.38 587.43&#10;  Q 917.92 608.37 914.73 617.50&#10;  Q 912.84 622.94 911.16 628.16&#10;  C 908.26 637.18 904.70 645.90 901.30 654.64&#10;  Q 890.69 681.86 879.63 701.74&#10;  Q 876.22 707.87 873.46 713.08&#10;  Q 870.39 718.86 866.88 724.41&#10;  Q 853.91 744.94 842.09 761.47&#10;  Q 838.98 765.83 828.71 778.75&#10;  C 823.49 785.31 817.65 791.05 812.42 797.45&#10;  C 808.89 801.77 804.77 805.31 801.05 809.29&#10;  C 794.83 815.95 788.43 821.51 782.05 827.74&#10;  Q 776.19 833.46 769.42 838.82&#10;  C 767.90 840.02 766.35 841.80 765.06 842.82&#10;  Q 752.13 853.02 738.72 863.09&#10;  C 733.29 867.17 727.49 870.44 722.07 874.38&#10;  Q 712.07 881.65 699.88 888.35&#10;  Q 679.39 899.62 659.48 908.97&#10;  Q 634.33 920.79 605.75 929.56&#10;  Q 597.71 932.02 569.06 939.31&#10;  Q 560.85 941.40 553.47 942.84&#10;  Q 545.55 944.38 537.55 945.87&#10;  C 533.35 946.65 529.10 946.84 524.86 947.56&#10;  Q 513.45 949.51 508.84 949.80&#10;  Q 473.31 952.05 436.24 950.39&#10;  Q 426.44 949.95 417.13 948.70&#10;  Q 407.76 947.44 398.09 946.07&#10;  Q 392.08 945.23 386.46 943.88&#10;  C 380.76 942.52 375.16 942.00 369.38 940.31&#10;  Q 365.42 939.16 361.05 938.18&#10;  C 355.40 936.92 349.89 935.08 344.20 933.86&#10;  C 340.27 933.01 336.62 931.36 332.68 930.34&#10;  Q 323.88 928.06 316.38 925.25&#10;  C 310.98 923.23 306.03 921.66 300.94 919.50&#10;  Q 296.91 917.79 292.71 916.12&#10;  Q 273.10 908.33 245.73 893.59&#10;  Q 242.43 891.82 239.10 890.24&#10;  Z&#10;  M 286.61 247.60&#10;  Q 290.44 244.43 294.07 241.14&#10;  C 297.72 237.86 299.96 233.26 303.19 229.47&#10;  Q 308.53 223.21 313.12 216.72&#10;  Q 316.61 211.80 319.35 204.48&#10;  Q 319.82 203.21 320.01 201.89&#10;  A 1.07 1.07 0.0 0 0 319.37 200.76&#10;  C 314.73 198.74 309.95 198.75 305.09 197.52&#10;  Q 297.19 195.52 286.66 195.30&#10;  C 285.55 195.28 284.69 194.85 283.64 194.80&#10;  Q 278.13 194.57 273.07 194.51&#10;  Q 271.48 194.50 270.75 195.90&#10;  C 268.31 200.61 264.77 204.84 262.23 209.30&#10;  Q 257.47 217.68 253.21 222.83&#10;  Q 248.41 228.64 243.54 234.11&#10;  C 239.76 238.37 235.52 241.74 231.73 246.05&#10;  C 230.84 247.06 229.52 247.72 228.17 247.72&#10;  Q 194.46 247.71 159.80 247.65&#10;  A 0.90 0.89 -87.6 0 0 158.91 248.47&#10;  Q 157.42 264.74 155.74 281.25&#10;  Q 155.52 283.41 155.66 286.22&#10;  A 0.59 0.59 0.0 0 0 156.29 286.78&#10;  C 160.98 286.48 165.54 287.25 170.25 287.25&#10;  Q 278.88 287.34 387.50 287.66&#10;  Q 390.83 287.67 394.45 287.69&#10;  C 398.80 287.73 399.27 294.72 399.28 297.74&#10;  Q 399.33 315.53 399.25 335.33&#10;  C 399.24 338.31 398.62 341.87 398.71 345.20&#10;  Q 398.95 354.53 397.47 363.76&#10;  Q 397.39 364.31 396.83 364.34&#10;  C 384.29 364.95 371.64 364.70 359.21 364.75&#10;  C 356.80 364.76 354.68 365.20 352.30 365.40&#10;  A 0.70 0.69 -2.6 0 1 351.54 364.71&#10;  L 351.73 301.66&#10;  A 0.37 0.36 -90.0 0 0 351.37 301.29&#10;  Q 346.24 301.25 341.01 301.05&#10;  Q 339.24 300.99 337.73 300.94&#10;  Q 323.03 300.47 308.25 300.79&#10;  Q 307.74 300.80 307.74 301.31&#10;  L 307.73 365.15&#10;  Q 307.73 365.68 307.20 365.68&#10;  L 260.07 365.67&#10;  A 0.50 0.50 0.0 0 1 259.60 365.01&#10;  Q 261.82 358.39 262.26 351.95&#10;  C 262.53 348.07 263.27 344.67 263.42 340.99&#10;  Q 264.10 324.58 263.44 307.89&#10;  Q 263.38 306.46 262.95 305.15&#10;  C 262.43 303.56 261.97 301.10 259.97 300.85&#10;  Q 255.41 300.28 250.01 300.03&#10;  Q 248.95 299.98 247.98 299.92&#10;  Q 235.31 299.11 220.28 299.35&#10;  Q 219.82 299.36 219.74 299.81&#10;  Q 218.53 307.23 218.23 315.05&#10;  C 218.14 317.30 217.67 319.39 217.68 321.66&#10;  Q 217.68 323.97 217.43 326.41&#10;  Q 216.26 338.00 215.03 349.55&#10;  Q 213.82 360.92 208.99 371.91&#10;  Q 206.17 378.31 201.35 383.21&#10;  Q 190.74 394.01 177.35 399.14&#10;  C 173.51 400.60 169.65 402.15 165.78 403.65&#10;  A 1.58 1.58 0.0 0 0 164.93 405.82&#10;  Q 165.52 407.03 165.85 408.56&#10;  C 166.69 412.45 169.87 415.89 171.47 419.75&#10;  C 173.74 425.24 176.11 431.03 179.34 436.00&#10;  Q 180.22 437.34 181.63 437.23&#10;  Q 194.77 436.20 207.15 430.54&#10;  C 212.41 428.14 217.50 426.45 222.20 422.73&#10;  Q 231.43 415.42 236.62 409.94&#10;  Q 239.35 407.06 241.73 403.53&#10;  A 2.29 2.29 0.0 0 1 243.64 402.53&#10;  Q 291.40 402.74 345.76 402.71&#10;  C 370.61 402.70 395.58 403.24 420.00 403.28&#10;  Q 427.89 403.29 432.68 398.03&#10;  C 435.66 394.76 437.48 389.74 438.17 385.48&#10;  Q 439.98 374.27 442.19 362.25&#10;  C 442.82 358.85 442.62 354.80 443.08 351.14&#10;  Q 443.74 345.89 443.76 340.04&#10;  C 443.76 338.44 444.37 337.02 444.34 335.35&#10;  Q 444.24 330.23 444.78 325.16&#10;  Q 445.30 320.27 445.31 315.22&#10;  Q 445.33 308.82 445.31 302.09&#10;  C 445.30 299.95 444.69 298.06 444.67 295.83&#10;  Q 444.61 289.98 443.91 283.19&#10;  Q 443.63 280.45 443.41 277.35&#10;  Q 442.63 266.57 437.38 257.04&#10;  C 436.17 254.84 433.79 251.01 431.33 250.61&#10;  Q 427.41 249.98 424.00 249.79&#10;  Q 414.91 249.30 403.94 249.21&#10;  C 402.98 249.21 402.09 248.77 401.14 248.76&#10;  Q 390.76 248.67 380.38 248.66&#10;  A 0.33 0.33 0.0 0 1 380.14 248.10&#10;  Q 387.71 240.01 395.18 231.55&#10;  C 399.75 226.39 405.55 221.90 409.38 216.47&#10;  C 410.85 214.37 414.33 209.58 414.48 206.74&#10;  Q 414.51 206.23 414.20 205.82&#10;  Q 409.37 199.37 405.93 196.27&#10;  C 397.71 188.87 388.67 181.63 379.24 175.88&#10;  C 375.71 173.73 369.18 172.76 367.37 177.82&#10;  Q 365.11 184.15 362.93 190.65&#10;  C 361.07 196.22 357.91 201.00 355.10 206.05&#10;  Q 353.86 208.28 352.38 210.51&#10;  C 350.63 213.16 349.61 216.10 347.65 218.86&#10;  Q 335.87 235.38 326.07 247.06&#10;  Q 325.07 248.25 323.52 248.26&#10;  Q 304.82 248.27 286.85 248.28&#10;  A 0.38 0.38 0.0 0 1 286.61 247.60&#10;  Z&#10;  M 534.21 193.66&#10;  C 531.77 194.74 529.42 195.48 527.31 197.32&#10;  Q 518.78 204.72 518.75 216.00&#10;  Q 518.63 269.14 518.87 322.67&#10;  C 518.88 324.68 519.22 326.79 519.23 328.85&#10;  Q 519.27 341.78 519.27 354.65&#10;  Q 519.27 356.90 519.92 359.03&#10;  C 521.12 362.94 521.95 366.57 524.68 369.72&#10;  Q 530.91 376.91 540.47 378.98&#10;  Q 547.52 380.51 555.52 381.39&#10;  Q 563.28 382.25 571.15 382.34&#10;  C 606.13 382.78 638.82 382.56 676.15 382.25&#10;  Q 681.80 382.20 687.82 381.86&#10;  Q 693.92 381.51 699.49 381.13&#10;  Q 704.31 380.80 708.64 380.34&#10;  Q 716.90 379.48 723.55 377.55&#10;  C 733.37 374.70 740.36 369.84 743.12 359.33&#10;  C 743.79 356.79 744.28 353.88 744.29 351.24&#10;  Q 744.42 284.20 744.15 223.41&#10;  Q 744.13 218.44 743.16 212.38&#10;  C 741.42 201.49 730.97 193.24 721.08 190.62&#10;  Q 716.93 189.52 712.38 188.58&#10;  Q 707.96 187.66 703.24 187.53&#10;  C 694.69 187.30 686.41 186.70 678.00 186.69&#10;  Q 640.67 186.63 605.83 186.81&#10;  C 603.79 186.82 601.86 187.26 599.82 187.25&#10;  Q 579.56 187.18 566.02 188.06&#10;  Q 555.08 188.77 542.08 191.10&#10;  C 539.32 191.60 536.75 192.53 534.21 193.66&#10;  Z&#10;  M 586.70 458.80&#10;  Q 588.45 458.82 587.56 460.32&#10;  Q 585.06 464.55 581.36 468.71&#10;  C 578.21 472.25 574.30 475.08 570.71 478.34&#10;  C 563.11 485.24 553.03 490.22 543.44 494.04&#10;  C 540.25 495.31 536.88 495.97 533.57 497.06&#10;  C 528.21 498.82 522.30 499.56 516.49 500.58&#10;  Q 511.26 501.50 506.87 501.34&#10;  Q 500.89 501.12 495.16 499.69&#10;  Q 494.49 499.52 494.50 500.21&#10;  Q 494.50 501.84 495.40 503.08&#10;  Q 498.45 507.34 500.18 511.32&#10;  Q 501.00 513.23 502.16 514.96&#10;  C 504.10 517.85 505.28 521.07 507.22 524.02&#10;  C 509.36 527.29 511.40 530.73 514.00 533.63&#10;  Q 515.73 535.55 517.13 537.79&#10;  A 1.88 1.88 0.0 0 0 518.62 538.66&#10;  Q 526.73 539.04 534.28 538.19&#10;  Q 557.00 535.61 578.31 526.90&#10;  Q 588.36 522.79 595.94 517.97&#10;  Q 602.23 513.97 608.87 508.96&#10;  Q 619.84 500.68 629.17 489.25&#10;  Q 633.61 483.81 636.49 478.06&#10;  Q 637.08 476.88 638.02 475.76&#10;  A 0.69 0.69 0.0 0 1 639.17 475.90&#10;  Q 642.21 482.29 646.92 488.25&#10;  Q 663.37 509.06 685.72 520.74&#10;  C 692.66 524.37 700.41 526.97 708.08 529.62&#10;  C 712.95 531.30 718.18 532.57 723.13 534.00&#10;  Q 734.85 537.38 750.39 538.69&#10;  Q 751.73 538.81 752.99 538.57&#10;  Q 753.39 538.49 753.58 538.13&#10;  Q 756.63 532.41 760.61 526.28&#10;  C 763.91 521.21 765.82 515.48 768.95 510.26&#10;  Q 771.04 506.76 772.50 502.30&#10;  A 1.06 1.06 0.0 0 0 771.62 500.92&#10;  Q 756.70 499.11 743.14 495.22&#10;  C 736.43 493.29 729.85 490.17 723.26 487.54&#10;  Q 718.60 485.69 714.08 482.50&#10;  C 708.81 478.79 703.23 475.24 698.59 470.91&#10;  C 695.67 468.17 692.20 465.69 689.94 462.43&#10;  Q 688.36 460.15 686.47 458.13&#10;  A 0.27 0.27 0.0 0 1 686.67 457.67&#10;  Q 702.75 457.78 722.27 457.49&#10;  C 725.42 457.44 729.68 457.23 729.69 453.00&#10;  Q 729.72 433.82 729.71 414.73&#10;  A 0.41 0.41 0.0 0 0 729.30 414.32&#10;  L 664.05 414.33&#10;  A 0.58 0.58 0.0 0 1 663.47 413.75&#10;  Q 663.58 405.98 663.38 398.39&#10;  C 663.28 394.54 659.60 390.77 656.72 388.73&#10;  Q 655.02 387.53 652.39 387.55&#10;  Q 633.83 387.76 616.01 387.72&#10;  Q 614.90 387.72 614.00 388.40&#10;  C 611.58 390.25 608.66 392.44 607.61 395.42&#10;  C 605.58 401.16 605.29 407.59 604.51 413.53&#10;  Q 604.43 414.21 603.74 414.22&#10;  Q 580.50 414.64 557.26 414.77&#10;  Q 555.28 414.78 553.27 415.07&#10;  C 549.99 415.55 546.58 415.11 543.26 415.43&#10;  Q 539.26 415.83 535.25 415.66&#10;  Q 534.70 415.64 534.66 416.18&#10;  Q 534.40 419.81 535.32 422.28&#10;  Q 536.67 425.96 536.69 428.99&#10;  Q 536.75 440.55 536.69 451.87&#10;  Q 536.69 453.27 537.06 454.62&#10;  C 537.66 456.76 537.56 458.66 540.50 458.66&#10;  Q 562.42 458.61 586.70 458.80&#10;  Z&#10;  M 334.81 459.80&#10;  Q 335.18 459.31 336.07 458.86&#10;  Q 346.70 453.50 353.64 447.92&#10;  C 357.48 444.83 361.29 442.41 365.26 439.62&#10;  Q 372.77 434.34 378.16 427.59&#10;  Q 378.54 427.12 378.00 426.84&#10;  C 373.70 424.64 369.46 422.20 364.99 420.30&#10;  Q 348.18 413.15 333.51 405.73&#10;  Q 331.57 404.75 329.72 403.57&#10;  Q 329.22 403.26 328.84 403.70&#10;  C 327.87 404.82 326.87 406.03 325.77 406.99&#10;  Q 310.06 420.68 293.80 432.07&#10;  C 288.87 435.52 283.57 438.85 278.15 441.51&#10;  Q 274.79 443.15 271.69 445.34&#10;  C 269.08 447.18 266.26 448.74 263.55 450.36&#10;  Q 260.63 452.10 257.21 453.71&#10;  C 249.98 457.13 242.92 461.14 235.57 464.07&#10;  Q 229.70 466.41 224.07 469.17&#10;  C 216.30 472.98 207.89 475.01 199.70 478.05&#10;  C 196.75 479.15 193.74 479.58 190.84 480.72&#10;  C 185.19 482.94 179.14 483.92 173.44 486.12&#10;  C 172.18 486.60 170.71 486.73 169.36 486.85&#10;  A 0.64 0.63 -10.0 0 0 168.80 487.64&#10;  C 170.54 494.26 171.41 501.25 172.77 507.98&#10;  Q 174.79 517.96 175.79 528.99&#10;  Q 175.85 529.68 176.53 529.52&#10;  C 183.70 527.79 190.56 526.77 197.83 524.67&#10;  Q 210.52 521.00 220.90 517.56&#10;  Q 222.33 517.08 223.98 516.40&#10;  C 227.05 515.14 230.33 514.44 233.40 513.20&#10;  Q 236.43 511.97 239.60 510.88&#10;  Q 244.07 509.34 249.28 507.33&#10;  Q 272.10 498.55 287.09 490.06&#10;  Q 289.08 488.93 290.77 489.76&#10;  Q 299.09 493.86 306.73 496.86&#10;  Q 313.74 499.62 323.20 503.01&#10;  Q 336.17 507.64 349.86 511.71&#10;  C 351.88 512.31 353.51 513.48 355.51 513.95&#10;  C 361.57 515.37 367.48 517.52 373.45 519.18&#10;  Q 378.06 520.46 383.26 522.19&#10;  Q 394.20 525.83 408.35 528.78&#10;  C 409.77 529.08 411.30 529.72 412.52 530.53&#10;  Q 413.11 530.93 413.22 530.22&#10;  L 419.64 487.30&#10;  Q 419.70 486.90 419.32 486.77&#10;  Q 412.52 484.36 405.76 482.91&#10;  Q 399.44 481.57 392.71 479.42&#10;  Q 384.93 476.94 376.85 474.72&#10;  Q 369.18 472.61 360.84 469.52&#10;  C 352.36 466.37 343.84 463.82 335.17 460.95&#10;  Q 334.19 460.63 334.81 459.80&#10;  Z&#10;  M 796.64 603.94&#10;  C 802.04 605.55 808.98 601.58 811.04 596.53&#10;  C 812.57 592.77 815.08 582.92 811.95 580.31&#10;  Q 811.16 579.65 809.82 579.66&#10;  Q 800.88 579.71 790.98 579.69&#10;  Q 786.23 579.68 785.83 584.29&#10;  C 785.36 589.74 785.54 594.15 787.93 598.94&#10;  C 789.46 602.00 793.66 603.04 796.64 603.94&#10;  Z&#10;  M 159.42 654.25&#10;  Q 162.04 654.26 164.46 654.36&#10;  C 166.88 654.45 169.27 656.95 171.15 658.41&#10;  Q 172.89 659.76 174.23 661.67&#10;  C 180.77 671.02 187.38 679.64 193.25 689.34&#10;  Q 195.46 693.00 198.11 696.17&#10;  Q 200.83 699.42 203.27 702.97&#10;  A 3.02 3.01 72.8 0 0 205.76 704.29&#10;  L 239.23 704.30&#10;  A 0.51 0.51 0.0 0 0 239.67 703.54&#10;  C 237.53 699.88 235.20 696.33 232.45 693.10&#10;  Q 226.65 686.29 221.86 679.41&#10;  Q 220.17 677.00 218.25 674.63&#10;  C 215.23 670.92 212.88 666.82 209.69 663.04&#10;  Q 203.72 655.97 197.48 648.87&#10;  A 0.68 0.68 0.0 0 1 197.94 647.74&#10;  C 203.52 647.31 207.45 645.58 212.48 643.42&#10;  C 215.64 642.06 218.98 638.61 220.78 635.91&#10;  C 223.72 631.50 225.60 624.41 225.68 619.22&#10;  Q 225.92 604.09 215.19 595.55&#10;  C 210.24 591.62 203.34 588.77 196.88 587.80&#10;  C 192.73 587.18 188.36 586.59 184.15 586.60&#10;  Q 156.83 586.64 130.23 586.72&#10;  Q 129.68 586.72 129.68 587.27&#10;  L 129.68 702.22&#10;  Q 129.68 704.25 131.72 704.25&#10;  L 158.23 704.25&#10;  A 0.49 0.49 0.0 0 0 158.72 703.76&#10;  L 158.69 654.97&#10;  Q 158.69 654.24 159.42 654.25&#10;  Z&#10;  M 624.14 693.65&#10;  Q 624.31 697.16 625.89 700.46&#10;  Q 626.16 701.03 626.26 701.64&#10;  L 626.48 703.02&#10;  A 0.83 0.83 0.0 0 0 627.30 703.72&#10;  C 628.96 703.71 630.33 704.32 632.05 704.31&#10;  Q 642.56 704.24 653.84 704.26&#10;  Q 654.47 704.27 655.07 704.08&#10;  A 0.50 0.50 0.0 0 0 655.38 703.40&#10;  Q 653.72 699.75 652.20 696.12&#10;  C 651.38 694.15 651.42 692.16 651.09 690.11&#10;  Q 650.71 687.77 650.70 685.36&#10;  Q 650.64 665.94 650.74 644.37&#10;  Q 650.77 639.38 649.97 635.43&#10;  C 649.18 631.44 647.39 625.12 644.31 622.05&#10;  Q 640.36 618.12 636.26 616.11&#10;  C 631.03 613.55 624.16 611.62 618.09 611.51&#10;  Q 610.66 611.37 602.46 611.63&#10;  Q 598.68 611.75 595.22 612.79&#10;  C 590.70 614.15 586.27 614.95 582.11 617.44&#10;  Q 579.04 619.28 577.00 621.08&#10;  C 573.87 623.84 570.19 629.54 570.86 634.06&#10;  C 571.20 636.35 572.29 639.67 575.22 639.70&#10;  C 577.67 639.72 580.09 639.73 582.55 640.25&#10;  Q 585.67 640.92 589.04 640.69&#10;  A 1.24 1.23 14.2 0 0 589.97 640.14&#10;  C 595.70 631.27 606.53 628.92 616.52 630.90&#10;  C 621.29 631.84 623.12 635.51 623.38 640.10&#10;  A 1.59 1.58 -11.1 0 1 622.31 641.69&#10;  Q 610.64 645.65 597.82 646.79&#10;  Q 595.43 647.01 593.66 648.81&#10;  Q 593.33 649.14 592.89 649.26&#10;  Q 589.98 650.07 587.08 650.32&#10;  C 579.85 650.94 574.33 656.70 570.31 662.13&#10;  C 565.61 668.47 565.40 678.05 567.14 685.55&#10;  C 568.18 690.05 570.90 694.41 574.36 697.35&#10;  C 576.62 699.28 578.93 701.59 581.67 702.70&#10;  Q 588.59 705.51 595.24 705.58&#10;  Q 598.82 705.61 603.94 704.49&#10;  Q 609.58 703.26 612.72 701.94&#10;  Q 616.43 700.38 620.81 696.86&#10;  Q 622.47 695.54 623.48 693.51&#10;  Q 624.08 692.31 624.14 693.65&#10;  Z&#10;  M 519.35 688.07&#10;  C 519.53 689.77 518.73 691.34 518.72 693.08&#10;  C 518.68 697.61 519.15 702.36 517.10 706.62&#10;  C 515.74 709.46 513.98 713.82 510.74 714.59&#10;  C 504.17 716.15 496.02 716.32 490.47 711.78&#10;  C 488.64 710.29 487.84 708.11 486.57 706.19&#10;  A 1.01 1.00 -16.0 0 0 485.75 705.74&#10;  Q 476.57 705.66 468.20 705.92&#10;  Q 466.05 705.99 463.90 706.54&#10;  Q 463.31 706.68 463.36 707.28&#10;  Q 463.47 708.60 464.32 709.65&#10;  A 1.78 1.73 25.3 0 1 464.71 710.69&#10;  Q 464.80 713.24 464.68 715.93&#10;  Q 464.57 718.26 465.53 720.54&#10;  Q 467.07 724.19 468.97 726.15&#10;  C 473.36 730.65 479.69 733.60 486.05 734.98&#10;  Q 502.80 738.62 519.90 735.15&#10;  Q 523.72 734.38 526.49 733.04&#10;  C 533.67 729.57 539.28 725.45 542.49 717.74&#10;  Q 546.27 708.68 546.29 701.07&#10;  Q 546.35 660.97 546.26 614.83&#10;  Q 546.26 614.31 545.75 614.31&#10;  L 522.23 614.30&#10;  A 0.72 0.72 0.0 0 0 521.51 615.02&#10;  L 521.50 623.21&#10;  Q 521.50 624.51 520.63 623.56&#10;  C 518.25 620.97 516.45 617.89 513.19 616.20&#10;  Q 507.09 613.04 500.67 612.25&#10;  C 498.51 611.98 494.68 611.28 492.93 611.77&#10;  C 487.38 613.34 480.57 614.33 475.95 618.05&#10;  Q 472.34 620.97 468.33 626.17&#10;  C 466.82 628.12 466.31 630.19 465.28 632.33&#10;  C 462.80 637.50 462.09 644.89 461.78 650.42&#10;  Q 461.39 657.38 461.86 664.10&#10;  Q 462.54 673.86 467.73 683.58&#10;  Q 472.19 691.94 480.36 695.54&#10;  Q 485.96 698.00 490.13 698.42&#10;  Q 494.32 698.85 499.34 698.58&#10;  C 503.45 698.37 509.36 696.44 512.10 694.04&#10;  Q 515.57 691.00 518.80 687.87&#10;  Q 519.28 687.41 519.35 688.07&#10;  Z&#10;  M 308.70 623.50&#10;  Q 308.69 625.87 307.62 623.76&#10;  Q 304.66 617.96 298.00 615.26&#10;  Q 288.39 611.37 277.95 612.48&#10;  Q 270.32 613.29 264.99 616.37&#10;  C 261.19 618.56 256.76 623.01 254.37 626.43&#10;  Q 248.26 635.17 246.89 645.43&#10;  Q 245.64 654.78 247.19 665.90&#10;  C 247.93 671.15 249.85 675.83 252.06 680.51&#10;  Q 256.36 689.65 265.09 694.38&#10;  C 270.33 697.22 276.16 699.53 282.12 699.30&#10;  Q 294.48 698.82 302.40 690.99&#10;  Q 303.13 690.27 303.69 689.36&#10;  Q 304.72 687.68 304.72 689.65&#10;  Q 304.73 694.95 304.79 700.71&#10;  C 304.90 711.02 295.85 716.08 286.68 715.31&#10;  Q 279.49 714.70 275.60 711.77&#10;  Q 272.44 709.39 269.52 706.69&#10;  C 267.82 705.12 264.90 703.49 262.44 704.23&#10;  Q 256.86 705.93 253.62 708.25&#10;  Q 249.35 711.32 244.71 714.69&#10;  Q 242.38 716.40 245.27 716.48&#10;  L 247.13 716.54&#10;  Q 247.84 716.56 248.23 717.15&#10;  Q 251.68 722.39 255.09 725.91&#10;  C 259.12 730.07 265.29 734.20 271.48 735.23&#10;  Q 278.32 736.36 284.75 737.04&#10;  C 289.77 737.58 294.05 736.74 298.90 736.23&#10;  Q 309.19 735.15 318.27 729.52&#10;  C 324.05 725.93 327.05 720.18 329.73 713.79&#10;  C 330.64 711.63 331.30 707.73 331.30 705.44&#10;  Q 331.33 662.06 331.31 614.86&#10;  Q 331.31 614.31 330.76 614.31&#10;  L 310.34 614.29&#10;  A 1.63 1.62 -89.8 0 0 308.72 615.91&#10;  L 308.70 623.50&#10;  Z&#10;  M 812.31 614.16&#10;  A 0.43 0.43 0.0 0 0 811.88 613.73&#10;  L 785.14 613.74&#10;  A 0.43 0.43 0.0 0 0 784.71 614.17&#10;  L 784.70 703.83&#10;  A 0.43 0.43 0.0 0 0 785.13 704.26&#10;  L 811.87 704.28&#10;  A 0.43 0.43 0.0 0 0 812.30 703.85&#10;  L 812.31 614.16&#10;  Z&#10;  M 413.41 692.40&#10;  C 413.53 694.76 412.50 696.91 412.74 699.24&#10;  Q 412.97 701.46 413.46 703.70&#10;  Q 413.59 704.30 414.20 704.30&#10;  L 438.65 704.30&#10;  Q 439.11 704.31 439.11 703.85&#10;  L 438.62 614.71&#10;  A 0.42 0.41 89.3 0 0 438.21 614.30&#10;  L 412.94 614.28&#10;  A 0.63 0.63 0.0 0 0 412.31 614.91&#10;  Q 412.33 643.83 412.31 671.19&#10;  C 412.31 674.01 407.95 677.39 405.78 679.09&#10;  C 400.55 683.19 394.14 684.13 388.48 680.50&#10;  C 384.99 678.26 383.24 674.45 383.26 670.33&#10;  Q 383.39 641.04 383.29 614.58&#10;  A 0.29 0.28 90.0 0 0 383.01 614.29&#10;  L 357.27 614.28&#10;  Q 356.71 614.28 356.71 614.84&#10;  Q 356.75 638.91 356.66 662.94&#10;  Q 356.64 668.07 357.18 673.41&#10;  C 357.95 680.94 358.72 689.31 363.71 694.99&#10;  Q 372.75 705.28 384.97 704.78&#10;  Q 385.53 704.75 386.02 705.04&#10;  A 1.50 1.47 -33.9 0 0 386.99 705.22&#10;  C 391.36 704.51 395.48 704.27 399.50 702.02&#10;  C 404.46 699.25 409.23 696.90 412.55 692.16&#10;  Q 413.34 691.04 413.41 692.40&#10;  Z&#10;  M 731.52 690.79&#10;  L 731.27 702.70&#10;  A 1.43 1.43 0.0 0 0 732.80 704.15&#10;  Q 745.20 703.24 757.61 704.28&#10;  Q 758.35 704.34 758.35 703.61&#10;  L 758.37 614.71&#10;  A 0.41 0.41 0.0 0 0 757.96 614.30&#10;  L 731.72 614.29&#10;  Q 731.14 614.29 731.15 614.86&#10;  Q 731.37 639.95 731.27 665.02&#10;  Q 731.25 670.41 730.05 673.28&#10;  C 727.26 679.89 720.70 682.95 713.31 682.44&#10;  C 704.63 681.83 702.38 673.71 702.42 665.90&#10;  Q 702.57 640.58 702.58 614.64&#10;  A 0.33 0.32 90.0 0 0 702.26 614.31&#10;  L 676.22 614.26&#10;  Q 675.61 614.26 675.61 614.86&#10;  Q 675.53 645.90 675.60 674.38&#10;  C 675.61 679.91 677.32 685.49 679.51 690.38&#10;  C 686.09 705.13 704.56 707.16 718.48 702.66&#10;  C 721.29 701.75 724.85 698.89 726.67 696.48&#10;  Q 728.21 694.44 729.89 692.63&#10;  A 2.23 2.11 76.5 0 0 730.39 691.76&#10;  Q 730.59 691.13 731.00 690.61&#10;  Q 731.54 689.92 731.52 690.79&#10;  Z"/>
<path fill="#fdfefe" d="&#10;  M 286.61 247.60&#10;  A 0.38 0.38 0.0 0 0 286.85 248.28&#10;  Q 304.82 248.27 323.52 248.26&#10;  Q 325.07 248.25 326.07 247.06&#10;  Q 335.87 235.38 347.65 218.86&#10;  C 349.61 216.10 350.63 213.16 352.38 210.51&#10;  Q 353.86 208.28 355.10 206.05&#10;  C 357.91 201.00 361.07 196.22 362.93 190.65&#10;  Q 365.11 184.15 367.37 177.82&#10;  C 369.18 172.76 375.71 173.73 379.24 175.88&#10;  C 388.67 181.63 397.71 188.87 405.93 196.27&#10;  Q 409.37 199.37 414.20 205.82&#10;  Q 414.51 206.23 414.48 206.74&#10;  C 414.33 209.58 410.85 214.37 409.38 216.47&#10;  C 405.55 221.90 399.75 226.39 395.18 231.55&#10;  Q 387.71 240.01 380.14 248.10&#10;  A 0.33 0.33 0.0 0 0 380.38 248.66&#10;  Q 390.76 248.67 401.14 248.76&#10;  C 402.09 248.77 402.98 249.21 403.94 249.21&#10;  Q 414.91 249.30 424.00 249.79&#10;  Q 427.41 249.98 431.33 250.61&#10;  C 433.79 251.01 436.17 254.84 437.38 257.04&#10;  Q 442.63 266.57 443.41 277.35&#10;  Q 443.63 280.45 443.91 283.19&#10;  Q 444.61 289.98 444.67 295.83&#10;  C 444.69 298.06 445.30 299.95 445.31 302.09&#10;  Q 445.33 308.82 445.31 315.22&#10;  Q 445.30 320.27 444.78 325.16&#10;  Q 444.24 330.23 444.34 335.35&#10;  C 444.37 337.02 443.76 338.44 443.76 340.04&#10;  Q 443.74 345.89 443.08 351.14&#10;  C 442.62 354.80 442.82 358.85 442.19 362.25&#10;  Q 439.98 374.27 438.17 385.48&#10;  C 437.48 389.74 435.66 394.76 432.68 398.03&#10;  Q 427.89 403.29 420.00 403.28&#10;  C 395.58 403.24 370.61 402.70 345.76 402.71&#10;  Q 291.40 402.74 243.64 402.53&#10;  A 2.29 2.29 0.0 0 0 241.73 403.53&#10;  Q 239.35 407.06 236.62 409.94&#10;  Q 231.43 415.42 222.20 422.73&#10;  C 217.50 426.45 212.41 428.14 207.15 430.54&#10;  Q 194.77 436.20 181.63 437.23&#10;  Q 180.22 437.34 179.34 436.00&#10;  C 176.11 431.03 173.74 425.24 171.47 419.75&#10;  C 169.87 415.89 166.69 412.45 165.85 408.56&#10;  Q 165.52 407.03 164.93 405.82&#10;  A 1.58 1.58 0.0 0 1 165.78 403.65&#10;  C 169.65 402.15 173.51 400.60 177.35 399.14&#10;  Q 190.74 394.01 201.35 383.21&#10;  Q 206.17 378.31 208.99 371.91&#10;  Q 213.82 360.92 215.03 349.55&#10;  Q 216.26 338.00 217.43 326.41&#10;  Q 217.68 323.97 217.68 321.66&#10;  C 217.67 319.39 218.14 317.30 218.23 315.05&#10;  Q 218.53 307.23 219.74 299.81&#10;  Q 219.82 299.36 220.28 299.35&#10;  Q 235.31 299.11 247.98 299.92&#10;  Q 248.95 299.98 250.01 300.03&#10;  Q 255.41 300.28 259.97 300.85&#10;  C 261.97 301.10 262.43 303.56 262.95 305.15&#10;  Q 263.38 306.46 263.44 307.89&#10;  Q 264.10 324.58 263.42 340.99&#10;  C 263.27 344.67 262.53 348.07 262.26 351.95&#10;  Q 261.82 358.39 259.60 365.01&#10;  A 0.50 0.50 0.0 0 0 260.07 365.67&#10;  L 307.20 365.68&#10;  Q 307.73 365.68 307.73 365.15&#10;  L 307.74 301.31&#10;  Q 307.74 300.80 308.25 300.79&#10;  Q 323.03 300.47 337.73 300.94&#10;  Q 339.24 300.99 341.01 301.05&#10;  Q 346.24 301.25 351.37 301.29&#10;  A 0.37 0.36 -90.0 0 1 351.73 301.66&#10;  L 351.54 364.71&#10;  A 0.70 0.69 -2.6 0 0 352.30 365.40&#10;  C 354.68 365.20 356.80 364.76 359.21 364.75&#10;  C 371.64 364.70 384.29 364.95 396.83 364.34&#10;  Q 397.39 364.31 397.47 363.76&#10;  Q 398.95 354.53 398.71 345.20&#10;  C 398.62 341.87 399.24 338.31 399.25 335.33&#10;  Q 399.33 315.53 399.28 297.74&#10;  C 399.27 294.72 398.80 287.73 394.45 287.69&#10;  Q 390.83 287.67 387.50 287.66&#10;  Q 278.88 287.34 170.25 287.25&#10;  C 165.54 287.25 160.98 286.48 156.29 286.78&#10;  A 0.59 0.59 0.0 0 1 155.66 286.22&#10;  Q 155.52 283.41 155.74 281.25&#10;  Q 157.42 264.74 158.91 248.47&#10;  A 0.90 0.89 -87.6 0 1 159.80 247.65&#10;  Q 194.46 247.71 228.17 247.72&#10;  C 229.52 247.72 230.84 247.06 231.73 246.05&#10;  C 235.52 241.74 239.76 238.37 243.54 234.11&#10;  Q 248.41 228.64 253.21 222.83&#10;  Q 257.47 217.68 262.23 209.30&#10;  C 264.77 204.84 268.31 200.61 270.75 195.90&#10;  Q 271.48 194.50 273.07 194.51&#10;  Q 278.13 194.57 283.64 194.80&#10;  C 284.69 194.85 285.55 195.28 286.66 195.30&#10;  Q 297.19 195.52 305.09 197.52&#10;  C 309.95 198.75 314.73 198.74 319.37 200.76&#10;  A 1.07 1.07 0.0 0 1 320.01 201.89&#10;  Q 319.82 203.21 319.35 204.48&#10;  Q 316.61 211.80 313.12 216.72&#10;  Q 308.53 223.21 303.19 229.47&#10;  C 299.96 233.26 297.72 237.86 294.07 241.14&#10;  Q 290.44 244.43 286.61 247.60&#10;  Z"/>
<path fill="#fdfefe" d="&#10;  M 534.21 193.66&#10;  C 536.75 192.53 539.32 191.60 542.08 191.10&#10;  Q 555.08 188.77 566.02 188.06&#10;  Q 579.56 187.18 599.82 187.25&#10;  C 601.86 187.26 603.79 186.82 605.83 186.81&#10;  Q 640.67 186.63 678.00 186.69&#10;  C 686.41 186.70 694.69 187.30 703.24 187.53&#10;  Q 707.96 187.66 712.38 188.58&#10;  Q 716.93 189.52 721.08 190.62&#10;  C 730.97 193.24 741.42 201.49 743.16 212.38&#10;  Q 744.13 218.44 744.15 223.41&#10;  Q 744.42 284.20 744.29 351.24&#10;  C 744.28 353.88 743.79 356.79 743.12 359.33&#10;  C 740.36 369.84 733.37 374.70 723.55 377.55&#10;  Q 716.90 379.48 708.64 380.34&#10;  Q 704.31 380.80 699.49 381.13&#10;  Q 693.92 381.51 687.82 381.86&#10;  Q 681.80 382.20 676.15 382.25&#10;  C 638.82 382.56 606.13 382.78 571.15 382.34&#10;  Q 563.28 382.25 555.52 381.39&#10;  Q 547.52 380.51 540.47 378.98&#10;  Q 530.91 376.91 524.68 369.72&#10;  C 521.95 366.57 521.12 362.94 519.92 359.03&#10;  Q 519.27 356.90 519.27 354.65&#10;  Q 519.27 341.78 519.23 328.85&#10;  C 519.22 326.79 518.88 324.68 518.87 322.67&#10;  Q 518.63 269.14 518.75 216.00&#10;  Q 518.78 204.72 527.31 197.32&#10;  C 529.42 195.48 531.77 194.74 534.21 193.66&#10;  Z&#10;  M 700.36 265.08&#10;  Q 702.26 260.59 702.27 256.63&#10;  Q 702.29 247.79 702.27 238.05&#10;  C 702.26 235.55 701.89 232.89 701.36 230.50&#10;  C 700.06 224.56 695.03 222.46 689.64 222.43&#10;  Q 643.99 222.21 580.90 222.71&#10;  C 578.20 222.73 575.62 223.40 572.96 223.46&#10;  C 565.86 223.62 561.23 228.14 561.26 235.28&#10;  Q 561.32 246.81 561.32 258.38&#10;  C 561.32 260.39 562.17 262.10 562.57 264.04&#10;  C 563.81 269.97 571.63 269.54 576.17 269.52&#10;  Q 632.16 269.23 690.51 269.32&#10;  Q 692.52 269.32 694.58 268.75&#10;  C 696.93 268.09 699.30 267.60 700.36 265.08&#10;  Z&#10;  M 693.37 299.98&#10;  L 571.31 300.62&#10;  A 9.27 9.27 0.0 0 0 562.09 309.94&#10;  L 562.22 335.62&#10;  A 14.05 10.71 -0.3 0 0 576.33 346.25&#10;  L 688.83 345.67&#10;  A 14.05 10.71 -0.3 0 0 702.82 334.88&#10;  L 702.69 309.20&#10;  A 9.27 9.27 0.0 0 0 693.37 299.98&#10;  Z"/>
<path fill="#8d4236" d="&#10;  M 700.36 265.08&#10;  C 699.30 267.60 696.93 268.09 694.58 268.75&#10;  Q 692.52 269.32 690.51 269.32&#10;  Q 632.16 269.23 576.17 269.52&#10;  C 571.63 269.54 563.81 269.97 562.57 264.04&#10;  C 562.17 262.10 561.32 260.39 561.32 258.38&#10;  Q 561.32 246.81 561.26 235.28&#10;  C 561.23 228.14 565.86 223.62 572.96 223.46&#10;  C 575.62 223.40 578.20 222.73 580.90 222.71&#10;  Q 643.99 222.21 689.64 222.43&#10;  C 695.03 222.46 700.06 224.56 701.36 230.50&#10;  C 701.89 232.89 702.26 235.55 702.27 238.05&#10;  Q 702.29 247.79 702.27 256.63&#10;  Q 702.26 260.59 700.36 265.08&#10;  Z"/>
<path fill="#8d4236" d="&#10;  M 693.37 299.98&#10;  A 9.27 9.27 0.0 0 1 702.69 309.20&#10;  L 702.82 334.88&#10;  A 14.05 10.71 -0.3 0 1 688.83 345.67&#10;  L 576.33 346.25&#10;  A 14.05 10.71 -0.3 0 1 562.22 335.62&#10;  L 562.09 309.94&#10;  A 9.27 9.27 0.0 0 1 571.31 300.62&#10;  L 693.37 299.98&#10;  Z"/>
<path fill="#fdfefe" d="&#10;  M 586.70 458.80&#10;  Q 562.42 458.61 540.50 458.66&#10;  C 537.56 458.66 537.66 456.76 537.06 454.62&#10;  Q 536.69 453.27 536.69 451.87&#10;  Q 536.75 440.55 536.69 428.99&#10;  Q 536.67 425.96 535.32 422.28&#10;  Q 534.40 419.81 534.66 416.18&#10;  Q 534.70 415.64 535.25 415.66&#10;  Q 539.26 415.83 543.26 415.43&#10;  C 546.58 415.11 549.99 415.55 553.27 415.07&#10;  Q 555.28 414.78 557.26 414.77&#10;  Q 580.50 414.64 603.74 414.22&#10;  Q 604.43 414.21 604.51 413.53&#10;  C 605.29 407.59 605.58 401.16 607.61 395.42&#10;  C 608.66 392.44 611.58 390.25 614.00 388.40&#10;  Q 614.90 387.72 616.01 387.72&#10;  Q 633.83 387.76 652.39 387.55&#10;  Q 655.02 387.53 656.72 388.73&#10;  C 659.60 390.77 663.28 394.54 663.38 398.39&#10;  Q 663.58 405.98 663.47 413.75&#10;  A 0.58 0.58 0.0 0 0 664.05 414.33&#10;  L 729.30 414.32&#10;  A 0.41 0.41 0.0 0 1 729.71 414.73&#10;  Q 729.72 433.82 729.69 453.00&#10;  C 729.68 457.23 725.42 457.44 722.27 457.49&#10;  Q 702.75 457.78 686.67 457.67&#10;  A 0.27 0.27 0.0 0 0 686.47 458.13&#10;  Q 688.36 460.15 689.94 462.43&#10;  C 692.20 465.69 695.67 468.17 698.59 470.91&#10;  C 703.23 475.24 708.81 478.79 714.08 482.50&#10;  Q 718.60 485.69 723.26 487.54&#10;  C 729.85 490.17 736.43 493.29 743.14 495.22&#10;  Q 756.70 499.11 771.62 500.92&#10;  A 1.06 1.06 0.0 0 1 772.50 502.30&#10;  Q 771.04 506.76 768.95 510.26&#10;  C 765.82 515.48 763.91 521.21 760.61 526.28&#10;  Q 756.63 532.41 753.58 538.13&#10;  Q 753.39 538.49 752.99 538.57&#10;  Q 751.73 538.81 750.39 538.69&#10;  Q 734.85 537.38 723.13 534.00&#10;  C 718.18 532.57 712.95 531.30 708.08 529.62&#10;  C 700.41 526.97 692.66 524.37 685.72 520.74&#10;  Q 663.37 509.06 646.92 488.25&#10;  Q 642.21 482.29 639.17 475.90&#10;  A 0.69 0.69 0.0 0 0 638.02 475.76&#10;  Q 637.08 476.88 636.49 478.06&#10;  Q 633.61 483.81 629.17 489.25&#10;  Q 619.84 500.68 608.87 508.96&#10;  Q 602.23 513.97 595.94 517.97&#10;  Q 588.36 522.79 578.31 526.90&#10;  Q 557.00 535.61 534.28 538.19&#10;  Q 526.73 539.04 518.62 538.66&#10;  A 1.88 1.88 0.0 0 1 517.13 537.79&#10;  Q 515.73 535.55 514.00 533.63&#10;  C 511.40 530.73 509.36 527.29 507.22 524.02&#10;  C 505.28 521.07 504.10 517.85 502.16 514.96&#10;  Q 501.00 513.23 500.18 511.32&#10;  Q 498.45 507.34 495.40 503.08&#10;  Q 494.50 501.84 494.50 500.21&#10;  Q 494.49 499.52 495.16 499.69&#10;  Q 500.89 501.12 506.87 501.34&#10;  Q 511.26 501.50 516.49 500.58&#10;  C 522.30 499.56 528.21 498.82 533.57 497.06&#10;  C 536.88 495.97 540.25 495.31 543.44 494.04&#10;  C 553.03 490.22 563.11 485.24 570.71 478.34&#10;  C 574.30 475.08 578.21 472.25 581.36 468.71&#10;  Q 585.06 464.55 587.56 460.32&#10;  Q 588.45 458.82 586.70 458.80&#10;  Z"/>
<path fill="#fdfefe" d="&#10;  M 334.81 459.80&#10;  Q 334.19 460.63 335.17 460.95&#10;  C 343.84 463.82 352.36 466.37 360.84 469.52&#10;  Q 369.18 472.61 376.85 474.72&#10;  Q 384.93 476.94 392.71 479.42&#10;  Q 399.44 481.57 405.76 482.91&#10;  Q 412.52 484.36 419.32 486.77&#10;  Q 419.70 486.90 419.64 487.30&#10;  L 413.22 530.22&#10;  Q 413.11 530.93 412.52 530.53&#10;  C 411.30 529.72 409.77 529.08 408.35 528.78&#10;  Q 394.20 525.83 383.26 522.19&#10;  Q 378.06 520.46 373.45 519.18&#10;  C 367.48 517.52 361.57 515.37 355.51 513.95&#10;  C 353.51 513.48 351.88 512.31 349.86 511.71&#10;  Q 336.17 507.64 323.20 503.01&#10;  Q 313.74 499.62 306.73 496.86&#10;  Q 299.09 493.86 290.77 489.76&#10;  Q 289.08 488.93 287.09 490.06&#10;  Q 272.10 498.55 249.28 507.33&#10;  Q 244.07 509.34 239.60 510.88&#10;  Q 236.43 511.97 233.40 513.20&#10;  C 230.33 514.44 227.05 515.14 223.98 516.40&#10;  Q 222.33 517.08 220.90 517.56&#10;  Q 210.52 521.00 197.83 524.67&#10;  C 190.56 526.77 183.70 527.79 176.53 529.52&#10;  Q 175.85 529.68 175.79 528.99&#10;  Q 174.79 517.96 172.77 507.98&#10;  C 171.41 501.25 170.54 494.26 168.80 487.64&#10;  A 0.64 0.63 -10.0 0 1 169.36 486.85&#10;  C 170.71 486.73 172.18 486.60 173.44 486.12&#10;  C 179.14 483.92 185.19 482.94 190.84 480.72&#10;  C 193.74 479.58 196.75 479.15 199.70 478.05&#10;  C 207.89 475.01 216.30 472.98 224.07 469.17&#10;  Q 229.70 466.41 235.57 464.07&#10;  C 242.92 461.14 249.98 457.13 257.21 453.71&#10;  Q 260.63 452.10 263.55 450.36&#10;  C 266.26 448.74 269.08 447.18 271.69 445.34&#10;  Q 274.79 443.15 278.15 441.51&#10;  C 283.57 438.85 288.87 435.52 293.80 432.07&#10;  Q 310.06 420.68 325.77 406.99&#10;  C 326.87 406.03 327.87 404.82 328.84 403.70&#10;  Q 329.22 403.26 329.72 403.57&#10;  Q 331.57 404.75 333.51 405.73&#10;  Q 348.18 413.15 364.99 420.30&#10;  C 369.46 422.20 373.70 424.64 378.00 426.84&#10;  Q 378.54 427.12 378.16 427.59&#10;  Q 372.77 434.34 365.26 439.62&#10;  C 361.29 442.41 357.48 444.83 353.64 447.92&#10;  Q 346.70 453.50 336.07 458.86&#10;  Q 335.18 459.31 334.81 459.80&#10;  Z"/>
<path fill="#fdfefe" d="&#10;  M 811.04 596.53&#10;  C 808.98 601.58 802.04 605.55 796.64 603.94&#10;  C 793.66 603.04 789.46 602.00 787.93 598.94&#10;  C 785.54 594.15 785.36 589.74 785.83 584.29&#10;  Q 786.23 579.68 790.98 579.69&#10;  Q 800.88 579.71 809.82 579.66&#10;  Q 811.16 579.65 811.95 580.31&#10;  C 815.08 582.92 812.57 592.77 811.04 596.53&#10;  Z"/>
<path fill="#fdfefe" d="&#10;  M 158.69 654.97&#10;  L 158.72 703.76&#10;  A 0.49 0.49 0.0 0 1 158.23 704.25&#10;  L 131.72 704.25&#10;  Q 129.68 704.25 129.68 702.22&#10;  L 129.68 587.27&#10;  Q 129.68 586.72 130.23 586.72&#10;  Q 156.83 586.64 184.15 586.60&#10;  C 188.36 586.59 192.73 587.18 196.88 587.80&#10;  C 203.34 588.77 210.24 591.62 215.19 595.55&#10;  Q 225.92 604.09 225.68 619.22&#10;  C 225.60 624.41 223.72 631.50 220.78 635.91&#10;  C 218.98 638.61 215.64 642.06 212.48 643.42&#10;  C 207.45 645.58 203.52 647.31 197.94 647.74&#10;  A 0.68 0.68 0.0 0 0 197.48 648.87&#10;  Q 203.72 655.97 209.69 663.04&#10;  C 212.88 666.82 215.23 670.92 218.25 674.63&#10;  Q 220.17 677.00 221.86 679.41&#10;  Q 226.65 686.29 232.45 693.10&#10;  C 235.20 696.33 237.53 699.88 239.67 703.54&#10;  A 0.51 0.51 0.0 0 1 239.23 704.30&#10;  L 205.76 704.29&#10;  A 3.02 3.01 72.8 0 1 203.27 702.97&#10;  Q 200.83 699.42 198.11 696.17&#10;  Q 195.46 693.00 193.25 689.34&#10;  C 187.38 679.64 180.77 671.02 174.23 661.67&#10;  Q 172.89 659.76 171.15 658.41&#10;  C 169.27 656.95 166.88 654.45 164.46 654.36&#10;  Q 162.04 654.26 159.42 654.25&#10;  Q 158.69 654.24 158.69 654.97&#10;  Z&#10;  M 158.55 606.60&#10;  L 158.45 634.12&#10;  A 0.25 0.25 0.0 0 0 158.70 634.38&#10;  L 179.96 634.45&#10;  A 16.07 12.39 0.2 0 0 196.07 622.12&#10;  L 196.09 618.88&#10;  A 16.07 12.39 0.2 0 0 180.06 606.43&#10;  L 158.80 606.36&#10;  A 0.25 0.25 0.0 0 0 158.55 606.60&#10;  Z"/>
<path fill="#8d4236" d="&#10;  M 158.55 606.60&#10;  A 0.25 0.25 0.0 0 1 158.80 606.36&#10;  L 180.06 606.43&#10;  A 16.07 12.39 0.2 0 1 196.09 618.88&#10;  L 196.07 622.12&#10;  A 16.07 12.39 0.2 0 1 179.96 634.45&#10;  L 158.70 634.38&#10;  A 0.25 0.25 0.0 0 1 158.45 634.12&#10;  L 158.55 606.60&#10;  Z"/>
<path fill="#fdfefe" d="&#10;  M 623.48 693.51&#10;  Q 622.47 695.54 620.81 696.86&#10;  Q 616.43 700.38 612.72 701.94&#10;  Q 609.58 703.26 603.94 704.49&#10;  Q 598.82 705.61 595.24 705.58&#10;  Q 588.59 705.51 581.67 702.70&#10;  C 578.93 701.59 576.62 699.28 574.36 697.35&#10;  C 570.90 694.41 568.18 690.05 567.14 685.55&#10;  C 565.40 678.05 565.61 668.47 570.31 662.13&#10;  C 574.33 656.70 579.85 650.94 587.08 650.32&#10;  Q 589.98 650.07 592.89 649.26&#10;  Q 593.33 649.14 593.66 648.81&#10;  Q 595.43 647.01 597.82 646.79&#10;  Q 610.64 645.65 622.31 641.69&#10;  A 1.59 1.58 -11.1 0 0 623.38 640.10&#10;  C 623.12 635.51 621.29 631.84 616.52 630.90&#10;  C 606.53 628.92 595.70 631.27 589.97 640.14&#10;  A 1.24 1.23 14.2 0 1 589.04 640.69&#10;  Q 585.67 640.92 582.55 640.25&#10;  C 580.09 639.73 577.67 639.72 575.22 639.70&#10;  C 572.29 639.67 571.20 636.35 570.86 634.06&#10;  C 570.19 629.54 573.87 623.84 577.00 621.08&#10;  Q 579.04 619.28 582.11 617.44&#10;  C 586.27 614.95 590.70 614.15 595.22 612.79&#10;  Q 598.68 611.75 602.46 611.63&#10;  Q 610.66 611.37 618.09 611.51&#10;  C 624.16 611.62 631.03 613.55 636.26 616.11&#10;  Q 640.36 618.12 644.31 622.05&#10;  C 647.39 625.12 649.18 631.44 649.97 635.43&#10;  Q 650.77 639.38 650.74 644.37&#10;  Q 650.64 665.94 650.70 685.36&#10;  Q 650.71 687.77 651.09 690.11&#10;  C 651.42 692.16 651.38 694.15 652.20 696.12&#10;  Q 653.72 699.75 655.38 703.40&#10;  A 0.50 0.50 0.0 0 1 655.07 704.08&#10;  Q 654.47 704.27 653.84 704.26&#10;  Q 642.56 704.24 632.05 704.31&#10;  C 630.33 704.32 628.96 703.71 627.30 703.72&#10;  A 0.83 0.83 0.0 0 1 626.48 703.02&#10;  L 626.26 701.64&#10;  Q 626.16 701.03 625.89 700.46&#10;  Q 624.31 697.16 624.14 693.65&#10;  Q 624.08 692.31 623.48 693.51&#10;  Z&#10;  M 622.29 658.27&#10;  C 620.00 659.29 617.53 659.38 615.17 660.32&#10;  C 609.25 662.67 603.01 664.30 597.18 667.08&#10;  C 593.39 668.89 591.67 672.18 592.42 676.19&#10;  Q 594.51 687.42 605.73 687.64&#10;  C 614.27 687.81 616.87 683.51 622.13 678.18&#10;  A 2.13 2.12 -23.1 0 0 622.73 676.70&#10;  L 622.71 658.54&#10;  A 0.30 0.30 0.0 0 0 622.29 658.27&#10;  Z"/>
<path fill="#fdfefe" d="&#10;  M 519.35 688.07&#10;  Q 519.28 687.41 518.80 687.87&#10;  Q 515.57 691.00 512.10 694.04&#10;  C 509.36 696.44 503.45 698.37 499.34 698.58&#10;  Q 494.32 698.85 490.13 698.42&#10;  Q 485.96 698.00 480.36 695.54&#10;  Q 472.19 691.94 467.73 683.58&#10;  Q 462.54 673.86 461.86 664.10&#10;  Q 461.39 657.38 461.78 650.42&#10;  C 462.09 644.89 462.80 637.50 465.28 632.33&#10;  C 466.31 630.19 466.82 628.12 468.33 626.17&#10;  Q 472.34 620.97 475.95 618.05&#10;  C 480.57 614.33 487.38 613.34 492.93 611.77&#10;  C 494.68 611.28 498.51 611.98 500.67 612.25&#10;  Q 507.09 613.04 513.19 616.20&#10;  C 516.45 617.89 518.25 620.97 520.63 623.56&#10;  Q 521.50 624.51 521.50 623.21&#10;  L 521.51 615.02&#10;  A 0.72 0.72 0.0 0 1 522.23 614.30&#10;  L 545.75 614.31&#10;  Q 546.26 614.31 546.26 614.83&#10;  Q 546.35 660.97 546.29 701.07&#10;  Q 546.27 708.68 542.49 717.74&#10;  C 539.28 725.45 533.67 729.57 526.49 733.04&#10;  Q 523.72 734.38 519.90 735.15&#10;  Q 502.80 738.62 486.05 734.98&#10;  C 479.69 733.60 473.36 730.65 468.97 726.15&#10;  Q 467.07 724.19 465.53 720.54&#10;  Q 464.57 718.26 464.68 715.93&#10;  Q 464.80 713.24 464.71 710.69&#10;  A 1.78 1.73 25.3 0 0 464.32 709.65&#10;  Q 463.47 708.60 463.36 707.28&#10;  Q 463.31 706.68 463.90 706.54&#10;  Q 466.05 705.99 468.20 705.92&#10;  Q 476.57 705.66 485.75 705.74&#10;  A 1.01 1.00 -16.0 0 1 486.57 706.19&#10;  C 487.84 708.11 488.64 710.29 490.47 711.78&#10;  C 496.02 716.32 504.17 716.15 510.74 714.59&#10;  C 513.98 713.82 515.74 709.46 517.10 706.62&#10;  C 519.15 702.36 518.68 697.61 518.72 693.08&#10;  C 518.73 691.34 519.53 689.77 519.35 688.07&#10;  Z&#10;  M 504.96 677.53&#10;  C 511.89 676.74 516.84 671.97 518.30 665.45&#10;  Q 520.50 655.63 518.21 646.45&#10;  Q 517.37 643.08 515.45 640.18&#10;  C 509.92 631.78 497.78 631.19 491.35 638.48&#10;  Q 487.35 643.01 486.91 647.90&#10;  Q 486.58 651.55 486.54 656.33&#10;  C 486.48 661.94 487.71 666.38 490.62 671.00&#10;  C 493.73 675.95 499.07 678.21 504.96 677.53&#10;  Z"/>
<path fill="#fdfefe" d="&#10;  M 308.70 623.50&#10;  L 308.72 615.91&#10;  A 1.63 1.62 -89.8 0 1 310.34 614.29&#10;  L 330.76 614.31&#10;  Q 331.31 614.31 331.31 614.86&#10;  Q 331.33 662.06 331.30 705.44&#10;  C 331.30 707.73 330.64 711.63 329.73 713.79&#10;  C 327.05 720.18 324.05 725.93 318.27 729.52&#10;  Q 309.19 735.15 298.90 736.23&#10;  C 294.05 736.74 289.77 737.58 284.75 737.04&#10;  Q 278.32 736.36 271.48 735.23&#10;  C 265.29 734.20 259.12 730.07 255.09 725.91&#10;  Q 251.68 722.39 248.23 717.15&#10;  Q 247.84 716.56 247.13 716.54&#10;  L 245.27 716.48&#10;  Q 242.38 716.40 244.71 714.69&#10;  Q 249.35 711.32 253.62 708.25&#10;  Q 256.86 705.93 262.44 704.23&#10;  C 264.90 703.49 267.82 705.12 269.52 706.69&#10;  Q 272.44 709.39 275.60 711.77&#10;  Q 279.49 714.70 286.68 715.31&#10;  C 295.85 716.08 304.90 711.02 304.79 700.71&#10;  Q 304.73 694.95 304.72 689.65&#10;  Q 304.72 687.68 303.69 689.36&#10;  Q 303.13 690.27 302.40 690.99&#10;  Q 294.48 698.82 282.12 699.30&#10;  C 276.16 699.53 270.33 697.22 265.09 694.38&#10;  Q 256.36 689.65 252.06 680.51&#10;  C 249.85 675.83 247.93 671.15 247.19 665.90&#10;  Q 245.64 654.78 246.89 645.43&#10;  Q 248.26 635.17 254.37 626.43&#10;  C 256.76 623.01 261.19 618.56 264.99 616.37&#10;  Q 270.32 613.29 277.95 612.48&#10;  Q 288.39 611.37 298.00 615.26&#10;  Q 304.66 617.96 307.62 623.76&#10;  Q 308.69 625.87 308.70 623.50&#10;  Z&#10;  M 275.28 669.08&#10;  Q 276.38 671.39 278.33 673.17&#10;  Q 286.54 680.68 296.73 675.80&#10;  C 301.83 673.36 302.83 669.62 304.48 664.78&#10;  C 306.86 657.78 305.70 649.14 302.77 642.70&#10;  Q 300.06 636.75 292.80 634.17&#10;  Q 287.23 632.19 281.59 635.14&#10;  Q 275.97 638.08 273.84 645.07&#10;  Q 269.94 657.83 275.28 669.08&#10;  Z"/>
<path fill="#fdfefe" d="&#10;  M 812.31 614.16&#10;  L 812.30 703.85&#10;  A 0.43 0.43 0.0 0 1 811.87 704.28&#10;  L 785.13 704.26&#10;  A 0.43 0.43 0.0 0 1 784.70 703.83&#10;  L 784.71 614.17&#10;  A 0.43 0.43 0.0 0 1 785.14 613.74&#10;  L 811.88 613.73&#10;  A 0.43 0.43 0.0 0 1 812.31 614.16&#10;  Z"/>
<path fill="#fdfefe" d="&#10;  M 413.41 692.40&#10;  Q 413.34 691.04 412.55 692.16&#10;  C 409.23 696.90 404.46 699.25 399.50 702.02&#10;  C 395.48 704.27 391.36 704.51 386.99 705.22&#10;  A 1.50 1.47 -33.9 0 1 386.02 705.04&#10;  Q 385.53 704.75 384.97 704.78&#10;  Q 372.75 705.28 363.71 694.99&#10;  C 358.72 689.31 357.95 680.94 357.18 673.41&#10;  Q 356.64 668.07 356.66 662.94&#10;  Q 356.75 638.91 356.71 614.84&#10;  Q 356.71 614.28 357.27 614.28&#10;  L 383.01 614.29&#10;  A 0.29 0.28 90.0 0 1 383.29 614.58&#10;  Q 383.39 641.04 383.26 670.33&#10;  C 383.24 674.45 384.99 678.26 388.48 680.50&#10;  C 394.14 684.13 400.55 683.19 405.78 679.09&#10;  C 407.95 677.39 412.31 674.01 412.31 671.19&#10;  Q 412.33 643.83 412.31 614.91&#10;  A 0.63 0.63 0.0 0 1 412.94 614.28&#10;  L 438.21 614.30&#10;  A 0.42 0.41 89.3 0 1 438.62 614.71&#10;  L 439.11 703.85&#10;  Q 439.11 704.31 438.65 704.30&#10;  L 414.20 704.30&#10;  Q 413.59 704.30 413.46 703.70&#10;  Q 412.97 701.46 412.74 699.24&#10;  C 412.50 696.91 413.53 694.76 413.41 692.40&#10;  Z"/>
<path fill="#fdfefe" d="&#10;  M 731.00 690.61&#10;  Q 730.59 691.13 730.39 691.76&#10;  A 2.23 2.11 76.5 0 1 729.89 692.63&#10;  Q 728.21 694.44 726.67 696.48&#10;  C 724.85 698.89 721.29 701.75 718.48 702.66&#10;  C 704.56 707.16 686.09 705.13 679.51 690.38&#10;  C 677.32 685.49 675.61 679.91 675.60 674.38&#10;  Q 675.53 645.90 675.61 614.86&#10;  Q 675.61 614.26 676.22 614.26&#10;  L 702.26 614.31&#10;  A 0.33 0.32 90.0 0 1 702.58 614.64&#10;  Q 702.57 640.58 702.42 665.90&#10;  C 702.38 673.71 704.63 681.83 713.31 682.44&#10;  C 720.70 682.95 727.26 679.89 730.05 673.28&#10;  Q 731.25 670.41 731.27 665.02&#10;  Q 731.37 639.95 731.15 614.86&#10;  Q 731.14 614.29 731.72 614.29&#10;  L 757.96 614.30&#10;  A 0.41 0.41 0.0 0 1 758.37 614.71&#10;  L 758.35 703.61&#10;  Q 758.35 704.34 757.61 704.28&#10;  Q 745.20 703.24 732.80 704.15&#10;  A 1.43 1.43 0.0 0 1 731.27 702.70&#10;  L 731.52 690.79&#10;  Q 731.54 689.92 731.00 690.61&#10;  Z"/>
<path fill="#8d4236" d="&#10;  M 275.28 669.08&#10;  Q 269.94 657.83 273.84 645.07&#10;  Q 275.97 638.08 281.59 635.14&#10;  Q 287.23 632.19 292.80 634.17&#10;  Q 300.06 636.75 302.77 642.70&#10;  C 305.70 649.14 306.86 657.78 304.48 664.78&#10;  C 302.83 669.62 301.83 673.36 296.73 675.80&#10;  Q 286.54 680.68 278.33 673.17&#10;  Q 276.38 671.39 275.28 669.08&#10;  Z"/>
<path fill="#8d4236" d="&#10;  M 504.96 677.53&#10;  C 499.07 678.21 493.73 675.95 490.62 671.00&#10;  C 487.71 666.38 486.48 661.94 486.54 656.33&#10;  Q 486.58 651.55 486.91 647.90&#10;  Q 487.35 643.01 491.35 638.48&#10;  C 497.78 631.19 509.92 631.78 515.45 640.18&#10;  Q 517.37 643.08 518.21 646.45&#10;  Q 520.50 655.63 518.30 665.45&#10;  C 516.84 671.97 511.89 676.74 504.96 677.53&#10;  Z"/>
<path fill="#8d4236" d="&#10;  M 622.29 658.27&#10;  A 0.30 0.30 0.0 0 1 622.71 658.54&#10;  L 622.73 676.70&#10;  A 2.13 2.12 -23.1 0 1 622.13 678.18&#10;  C 616.87 683.51 614.27 687.81 605.73 687.64&#10;  Q 594.51 687.42 592.42 676.19&#10;  C 591.67 672.18 593.39 668.89 597.18 667.08&#10;  C 603.01 664.30 609.25 662.67 615.17 660.32&#10;  C 617.53 659.38 620.00 659.29 622.29 658.27&#10;  Z"/>
</svg>